<svg width="48" height="48" viewBox="0 0 48 48" fill="none" xmlns="http://www.w3.org/2000/svg">
<rect width="48" height="48" rx="6" fill="white"/>
<rect x="0.5" y="0.5" width="47" height="47" rx="5.5" stroke="#0059B3" stroke-opacity="0.16"/>
<path d="M16.5 22.125H22.125V24H16.5V22.125ZM16.5 14.625H27.75V16.5H16.5V14.625ZM16.5 18.375H27.75V20.25H16.5V18.375ZM16.5 31.5H22.125V33.375H16.5V31.5ZM34.3125 32.4375H28.6875C27.9416 32.4375 27.2262 32.7338 26.6988 33.2613C26.1713 33.7887 25.875 34.5041 25.875 35.25V37.125H27.75V35.25C27.75 35.0014 27.8488 34.7629 28.0246 34.5871C28.2004 34.4113 28.4389 34.3125 28.6875 34.3125H34.3125C34.5611 34.3125 34.7996 34.4113 34.9754 34.5871C35.1512 34.7629 35.25 35.0014 35.25 35.25V37.125H37.125V35.25C37.125 34.5041 36.8287 33.7887 36.3012 33.2613C35.7738 32.7338 35.0584 32.4375 34.3125 32.4375ZM31.5 31.5C32.2417 31.5 32.9667 31.2801 33.5834 30.868C34.2001 30.456 34.6807 29.8703 34.9645 29.1851C35.2484 28.4998 35.3226 27.7458 35.1779 27.0184C35.0333 26.291 34.6761 25.6228 34.1516 25.0984C33.6272 24.5739 32.959 24.2167 32.2316 24.0721C31.5042 23.9274 30.7502 24.0016 30.0649 24.2855C29.3797 24.5693 28.794 25.0499 28.382 25.6666C27.9699 26.2833 27.75 27.0083 27.75 27.75C27.75 28.7446 28.1451 29.6984 28.8484 30.4016C29.5516 31.1049 30.5054 31.5 31.5 31.5ZM31.5 25.875C31.8708 25.875 32.2334 25.985 32.5417 26.191C32.85 26.397 33.0904 26.6899 33.2323 27.0325C33.3742 27.3751 33.4113 27.7521 33.339 28.1158C33.2666 28.4795 33.088 28.8136 32.8258 29.0758C32.5636 29.338 32.2295 29.5166 31.8658 29.589C31.5021 29.6613 31.1251 29.6242 30.7825 29.4823C30.4399 29.3404 30.147 29.1 29.941 28.7917C29.735 28.4834 29.625 28.1208 29.625 27.75C29.625 27.2527 29.8225 26.7758 30.1742 26.4242C30.5258 26.0725 31.0027 25.875 31.5 25.875Z" fill="#1279E1"/>
<path d="M22.125 37.125H14.625C14.1279 37.1245 13.6512 36.9268 13.2997 36.5753C12.9482 36.2238 12.7505 35.7471 12.75 35.25V12.75C12.7505 12.2529 12.9482 11.7762 13.2997 11.4247C13.6512 11.0732 14.1279 10.8755 14.625 10.875H29.625C30.1221 10.8755 30.5988 11.0732 30.9503 11.4247C31.3018 11.7762 31.4995 12.2529 31.5 12.75V22.125H29.625V12.75H14.625V35.25H22.125V37.125Z" fill="#1279E1"/>
</svg>
