<svg width="48" height="48" viewBox="0 0 48 48" fill="none" xmlns="http://www.w3.org/2000/svg">
<rect width="48" height="48" rx="6" fill="#0073E6"/>
<path d="M24.0201 12.5625C20.6178 12.5625 18.4141 13.9996 16.684 16.5627C16.3702 17.0276 16.4669 17.6651 16.9047 18.0073L18.7435 19.4447C19.1856 19.7904 19.8147 19.7095 20.1609 19.2624C21.2286 17.8834 22.0206 17.0894 23.6884 17.0894C24.9997 17.0894 26.6217 17.9595 26.6217 19.2704C26.6217 20.2615 25.8281 20.7705 24.5334 21.5189C23.0235 22.3916 21.0254 23.4778 21.0254 26.1949V26.625C21.0254 27.2075 21.4834 27.6797 22.0484 27.6797H25.1374C25.7024 27.6797 26.1604 27.2075 26.1604 26.625V26.3713C26.1604 24.4878 31.5 24.4094 31.5 19.3125C31.5 15.4741 27.6381 12.5625 24.0201 12.5625ZM23.5929 28.9743C21.9648 28.9743 20.6402 30.3399 20.6402 32.0184C20.6402 33.6969 21.9648 35.0625 23.5929 35.0625C25.221 35.0625 26.5456 33.6969 26.5456 32.0184C26.5456 30.3398 25.221 28.9743 23.5929 28.9743Z" fill="white"/>
</svg>
