<svg width="48" height="48" viewBox="0 0 48 48" fill="none" xmlns="http://www.w3.org/2000/svg">
<rect width="48" height="48" rx="6" fill="#0073E6"/>
<path d="M37.75 21.5C37.75 20.837 37.4866 20.2011 37.0178 19.7322C36.5489 19.2634 35.913 19 35.25 19H27.35L28.55 13.2875C28.575 13.1625 28.5875 13.025 28.5875 12.8875C28.5875 12.375 28.375 11.9 28.0375 11.5625L26.7125 10.25L18.4875 18.475C18.025 18.9375 17.75 19.5625 17.75 20.25V32.75C17.75 33.413 18.0134 34.0489 18.4822 34.5178C18.9511 34.9866 19.587 35.25 20.25 35.25H31.5C32.5375 35.25 33.425 34.625 33.8 33.725L37.575 24.9125C37.6875 24.625 37.75 24.325 37.75 24V21.5ZM10.25 35.25H15.25V20.25H10.25V35.25Z" fill="white"/>
</svg>
