<svg width="20" height="20" viewBox="0 0 20 20" fill="none" xmlns="http://www.w3.org/2000/svg">
<path fill-rule="evenodd" clip-rule="evenodd" d="M10.9375 1.03448C10.9375 0.760121 10.8387 0.496996 10.6629 0.302993C10.4871 0.10899 10.2486 0 10 0C9.75136 0 9.5129 0.10899 9.33708 0.302993C9.16126 0.496996 9.06249 0.760121 9.06249 1.03448V2.75862H7.83247C7.45122 2.75862 7.07747 2.86897 6.74621 3.07586L5.13619 4.09241C5.08863 4.12244 5.03474 4.13814 4.97994 4.13793H2.18741C1.93877 4.13793 1.70031 4.24692 1.52449 4.44092C1.34867 4.63493 1.2499 4.89805 1.2499 5.17241C1.2499 5.44678 1.34867 5.7099 1.52449 5.9039C1.70031 6.09791 1.93877 6.2069 2.18741 6.2069H2.72241L0.0823842 12.6786C0.00440586 12.8701 -0.018942 13.0832 0.0154413 13.2896C0.0498247 13.4961 0.140312 13.6861 0.274886 13.8345V13.8359L0.277387 13.8386L0.279887 13.8414L0.287387 13.8497L0.307387 13.8703L0.363638 13.9255C0.62653 14.1686 0.914328 14.377 1.22115 14.5462C2.00829 14.9697 2.87428 15.1841 3.74993 15.1724C4.84994 15.1724 5.69495 14.869 6.27871 14.5462C6.58552 14.377 6.87332 14.1686 7.13622 13.9255L7.19247 13.8703L7.21247 13.8497L7.21997 13.8414L7.22247 13.8386L7.22372 13.8359L6.56246 13.1034L7.22497 13.8345C7.35954 13.6861 7.45003 13.4961 7.48441 13.2896C7.5188 13.0832 7.49545 12.8701 7.41747 12.6786L4.77744 6.2069H4.97994C5.3612 6.2069 5.73495 6.09655 6.0662 5.88966L7.67747 4.8731C7.72467 4.84331 7.7781 4.82762 7.83247 4.82759H9.06249V17.931H5.93745C5.68881 17.931 5.45035 18.04 5.27453 18.234C5.09871 18.428 4.99994 18.6912 4.99994 18.9655C4.99994 19.2399 5.09871 19.503 5.27453 19.697C5.45035 19.891 5.68881 20 5.93745 20H14.0625C14.3112 20 14.5497 19.891 14.7255 19.697C14.9013 19.503 15.0001 19.2399 15.0001 18.9655C15.0001 18.6912 14.9013 18.428 14.7255 18.234C14.5497 18.04 14.3112 17.931 14.0625 17.931H10.9375V4.82759H12.1675C12.2219 4.82762 12.2753 4.84331 12.3225 4.8731L13.935 5.88828C14.265 6.09793 14.6388 6.2069 15.0201 6.2069H15.2226L12.5825 12.6786C12.5046 12.8701 12.4812 13.0832 12.5156 13.2896C12.55 13.4961 12.6405 13.6861 12.775 13.8345V13.8359L12.7775 13.8386L12.78 13.8414L12.7875 13.8497L12.8075 13.8703L12.8638 13.9255C13.1267 14.1686 13.4145 14.3769 13.7213 14.5462C14.5084 14.9697 15.3744 15.1841 16.2501 15.1724C17.3501 15.1724 18.1951 14.869 18.7789 14.5462C19.0857 14.377 19.3735 14.1687 19.6364 13.9255L19.6926 13.8703L19.7051 13.8566L19.7126 13.8497L19.7201 13.8414L19.7226 13.8386L19.7239 13.8359L19.0626 13.1034L19.7251 13.8345C19.8597 13.6861 19.9502 13.4961 19.9846 13.2896C20.0189 13.0832 19.9956 12.8701 19.9176 12.6786L17.2788 6.2069H17.8126C18.0612 6.2069 18.2997 6.09791 18.4755 5.9039C18.6513 5.7099 18.7501 5.44678 18.7501 5.17241C18.7501 4.89805 18.6513 4.63493 18.4755 4.44092C18.2997 4.24692 18.0612 4.13793 17.8126 4.13793H15.0201C14.9657 4.1379 14.9123 4.12221 14.8651 4.09241L13.2525 3.07724C12.9225 2.86891 12.549 2.7591 12.1688 2.75862H10.9375V1.03448ZM2.11866 12.7269C2.47491 12.9131 3.01617 13.1034 3.74993 13.1034C4.48369 13.1034 5.02494 12.9131 5.3812 12.7269L3.74993 8.7269L2.11866 12.7269ZM14.6188 12.7269C14.9751 12.9131 15.5163 13.1034 16.2501 13.1034C16.9838 13.1034 17.5251 12.9131 17.8813 12.7269L16.2501 8.7269L14.6188 12.7269Z" fill="#3399FF"/>
</svg>
