<svg width="48" height="48" viewBox="0 0 48 48" fill="none" xmlns="http://www.w3.org/2000/svg">
<rect width="48" height="48" rx="6" fill="white"/>
<rect x="0.5" y="0.5" width="47" height="47" rx="5.5" stroke="#0059B3" stroke-opacity="0.16"/>
<path d="M25.25 20.25H31.5L25.25 14V20.25ZM16.5 36.5C15.8125 36.5 15.2242 36.2554 14.735 35.7663C14.2458 35.2771 14.0008 34.6883 14 34V30.25H34V34C34 34.6875 33.7554 35.2763 33.2663 35.7663C32.7771 36.2563 32.1883 36.5008 31.5 36.5H16.5ZM10.25 27.75V25.25H37.75V27.75H10.25ZM14 22.75V14C14 13.3125 14.245 12.7242 14.735 12.235C15.225 11.7458 15.8133 11.5008 16.5 11.5H26.5L34 19V22.75H14Z" fill="#1279E1"/>
</svg>
