<svg width="48" height="48" viewBox="0 0 48 48" fill="none" xmlns="http://www.w3.org/2000/svg">
<rect width="48" height="48" rx="6" fill="white"/>
<rect x="0.5" y="0.5" width="47" height="47" rx="5.5" stroke="#0059B3" stroke-opacity="0.16"/>
<path fill-rule="evenodd" clip-rule="evenodd" d="M26.8125 12.125C26.8125 12.0421 26.7796 11.9626 26.721 11.904C26.6624 11.8454 26.5829 11.8125 26.5 11.8125H17.75C16.8383 11.8125 15.964 12.1747 15.3193 12.8193C14.6747 13.464 14.3125 14.3383 14.3125 15.25V32.75C14.3125 33.6617 14.6747 34.536 15.3193 35.1807C15.964 35.8253 16.8383 36.1875 17.75 36.1875H30.25C31.1617 36.1875 32.036 35.8253 32.6807 35.1807C33.3253 34.536 33.6875 33.6617 33.6875 32.75V20.4338C33.6875 20.3509 33.6546 20.2714 33.596 20.2128C33.5374 20.1542 33.4579 20.1213 33.375 20.1213H27.75C27.5014 20.1213 27.2629 20.0225 27.0871 19.8467C26.9113 19.6708 26.8125 19.4324 26.8125 19.1838V12.125ZM27.75 24.3125C27.9986 24.3125 28.2371 24.4113 28.4129 24.5871C28.5887 24.7629 28.6875 25.0014 28.6875 25.25C28.6875 25.4986 28.5887 25.7371 28.4129 25.9129C28.2371 26.0887 27.9986 26.1875 27.75 26.1875H20.25C20.0014 26.1875 19.7629 26.0887 19.5871 25.9129C19.4113 25.7371 19.3125 25.4986 19.3125 25.25C19.3125 25.0014 19.4113 24.7629 19.5871 24.5871C19.7629 24.4113 20.0014 24.3125 20.25 24.3125H27.75ZM27.75 29.3125C27.9986 29.3125 28.2371 29.4113 28.4129 29.5871C28.5887 29.7629 28.6875 30.0014 28.6875 30.25C28.6875 30.4986 28.5887 30.7371 28.4129 30.9129C28.2371 31.0887 27.9986 31.1875 27.75 31.1875H20.25C20.0014 31.1875 19.7629 31.0887 19.5871 30.9129C19.4113 30.7371 19.3125 30.4986 19.3125 30.25C19.3125 30.0014 19.4113 29.7629 19.5871 29.5871C19.7629 29.4113 20.0014 29.3125 20.25 29.3125H27.75Z" fill="#1279E1"/>
<path d="M28.6875 12.53C28.6875 12.3 28.9288 12.1538 29.1075 12.2975C29.2588 12.42 29.395 12.5625 29.5113 12.725L33.2775 17.9713C33.3625 18.0913 33.27 18.2463 33.1225 18.2463H29C28.9171 18.2463 28.8376 18.2133 28.779 18.1547C28.7204 18.0961 28.6875 18.0166 28.6875 17.9338V12.53Z" fill="#1279E1"/>
</svg>
