<svg width="48" height="48" viewBox="0 0 48 48" fill="none" xmlns="http://www.w3.org/2000/svg">
<rect width="48" height="48" rx="6" fill="white"/>
<rect x="0.5" y="0.5" width="47" height="47" rx="5.5" stroke="#0059B3" stroke-opacity="0.16"/>
<path d="M36.495 14.355C36.495 14.355 36.9 13.155 36.03 12.315C35.235 11.535 34.2 11.955 34.2 11.955C33.285 12.405 25.56 17.16 22.695 20.31C21.405 21.75 19.605 25.995 21.06 27.54C22.44 29.01 27 27.285 28.245 26.04C31.335 22.95 36.06 15.285 36.495 14.355ZM11.1 35.475C14.655 33.135 13.29 30.36 15.945 28.515C17.34 27.54 19.275 27.585 20.565 28.95C21.51 29.955 21.765 32.805 20.325 34.14C17.97 36.315 14.325 36.465 11.1 35.475Z" fill="#1279E1"/>
</svg>
