<svg width="48" height="48" viewBox="0 0 48 48" fill="none" xmlns="http://www.w3.org/2000/svg">
<rect width="48" height="48" rx="6" fill="white"/>
<rect x="0.5" y="0.5" width="47" height="47" rx="5.5" stroke="#0059B3" stroke-opacity="0.16"/>
<path d="M24 23.375C23.1712 23.375 22.3763 23.0458 21.7903 22.4597C21.2042 21.8737 20.875 21.0788 20.875 20.25C20.875 19.4212 21.2042 18.6263 21.7903 18.0403C22.3763 17.4542 23.1712 17.125 24 17.125C24.8288 17.125 25.6237 17.4542 26.2097 18.0403C26.7958 18.6263 27.125 19.4212 27.125 20.25C27.125 20.6604 27.0442 21.0667 26.8871 21.4459C26.7301 21.825 26.4999 22.1695 26.2097 22.4597C25.9195 22.7499 25.575 22.9801 25.1959 23.1371C24.8167 23.2942 24.4104 23.375 24 23.375ZM24 11.5C21.6794 11.5 19.4538 12.4219 17.8128 14.0628C16.1719 15.7038 15.25 17.9294 15.25 20.25C15.25 26.8125 24 36.5 24 36.5C24 36.5 32.75 26.8125 32.75 20.25C32.75 17.9294 31.8281 15.7038 30.1872 14.0628C28.5462 12.4219 26.3206 11.5 24 11.5Z" fill="#1279E1"/>
</svg>
