<svg width="48" height="48" viewBox="0 0 48 48" fill="none" xmlns="http://www.w3.org/2000/svg">
<rect width="48" height="48" rx="6" fill="white"/>
<rect x="0.5" y="0.5" width="47" height="47" rx="5.5" stroke="#0059B3" stroke-opacity="0.16"/>
<path d="M34 11.5475V11.5C33.9162 11.5 33.8325 11.5025 33.75 11.5087V11.5H18.6875C17.6101 11.5 16.5767 11.928 15.8149 12.6899C15.053 13.4517 14.625 14.4851 14.625 15.5625V28.375H24.3125C25.175 28.375 25.875 29.075 25.875 29.9375V33.6875C25.875 35.2725 27.2438 36.5 29.0338 36.5C30.6488 36.5 31.9213 35.5288 32.155 34.1475C32.16 34.0738 32.1625 33.9975 32.1638 33.9225V14.76C32.1634 14.111 32.3327 13.4731 32.6548 12.9096C32.9769 12.3461 33.4406 11.8766 34 11.5475ZM10.25 31.3775C10.25 30.755 10.755 30.25 11.3775 30.25H24V33.8125H24.0013C24.0263 34.7843 24.3546 35.7239 24.94 36.5H14C11.9712 36.5 10.25 34.9563 10.25 32.8438V31.3775ZM38.0625 14.4688V17.7937C38.0625 18.9775 37.1037 19.9375 35.92 19.9375H34V14.4688C34 13.93 34.214 13.4134 34.5949 13.0324C34.9759 12.6515 35.4925 12.4375 36.0312 12.4375C36.57 12.4375 37.0866 12.6515 37.4676 13.0324C37.8485 13.4134 38.0625 13.93 38.0625 14.4688Z" fill="#1279E1"/>
</svg>
