<svg width="48" height="48" viewBox="0 0 48 48" fill="none" xmlns="http://www.w3.org/2000/svg">
<rect width="48" height="48" rx="6" fill="white"/>
<rect x="0.5" y="0.5" width="47" height="47" rx="5.5" stroke="#0059B3" stroke-opacity="0.16"/>
<path d="M24.0005 19.3125C23.0734 19.3125 22.1671 19.5874 21.3963 20.1025C20.6254 20.6176 20.0246 21.3496 19.6698 22.2062C19.315 23.0627 19.2222 24.0052 19.4031 24.9145C19.5839 25.8238 20.0304 26.659 20.6859 27.3146C21.3415 27.9701 22.1767 28.4166 23.086 28.5974C23.9953 28.7783 24.9378 28.6855 25.7943 28.3307C26.6509 27.9759 27.383 27.3751 27.898 26.6042C28.4131 25.8334 28.688 24.9271 28.688 24C28.6843 22.7579 28.1893 21.5678 27.311 20.6895C26.4327 19.8113 25.2426 19.3162 24.0005 19.3125ZM34.1208 24C34.1184 24.438 34.0863 24.8753 34.0247 25.309L36.8777 27.5426C37.0019 27.6452 37.0856 27.7886 37.1139 27.9473C37.1421 28.1059 37.113 28.2694 37.0318 28.4086L34.3329 33.068C34.2509 33.2059 34.1228 33.3105 33.9713 33.3633C33.8198 33.4162 33.6544 33.4139 33.5044 33.3568L30.1499 32.0092C29.4514 32.5471 28.687 32.9935 27.8753 33.3375L27.3738 36.8988C27.3457 37.0584 27.2631 37.2032 27.1401 37.3085C27.0171 37.4139 26.8613 37.4733 26.6993 37.4766H21.3017C21.1427 37.4735 20.9894 37.4166 20.867 37.3152C20.7445 37.2137 20.66 37.0738 20.6273 36.9182L20.1257 33.3568C19.3118 33.0168 18.5468 32.5697 17.8511 32.0273L14.4966 33.375C14.3467 33.4321 14.1814 33.4345 14.0299 33.3817C13.8783 33.329 13.7502 33.2245 13.6681 33.0867L10.9693 28.4279C10.888 28.2888 10.8589 28.1252 10.8872 27.9666C10.9154 27.808 10.9991 27.6645 11.1234 27.5619L13.9763 25.3283C13.9154 24.8881 13.8833 24.4444 13.8802 24C13.8826 23.562 13.9147 23.1247 13.9763 22.691L11.1234 20.4574C10.9991 20.3548 10.9154 20.2114 10.8872 20.0527C10.8589 19.8941 10.888 19.7306 10.9693 19.5914L13.6681 14.932C13.7501 14.7941 13.8782 14.6895 14.0297 14.6367C14.1813 14.5838 14.3466 14.5861 14.4966 14.6432L17.8511 15.9908C18.5496 15.4529 19.314 15.0065 20.1257 14.6625L20.6273 11.1012C20.6553 10.9416 20.7379 10.7968 20.8609 10.6915C20.984 10.5861 21.1397 10.5267 21.3017 10.5234H26.6993C26.8583 10.5265 27.0116 10.5834 27.1341 10.6848C27.2566 10.7863 27.3411 10.9262 27.3738 11.0818L27.8753 14.6432C28.6903 14.983 29.4562 15.4301 30.1529 15.9727L33.5044 14.625C33.6544 14.5679 33.8196 14.5655 33.9712 14.6183C34.1227 14.671 34.2508 14.7755 34.3329 14.9133L37.0318 19.5727C37.113 19.7118 37.1421 19.8753 37.1139 20.034C37.0856 20.1926 37.0019 20.3361 36.8777 20.4387L34.0247 22.6723C34.0856 23.1123 34.1177 23.5558 34.1208 24Z" fill="#1279E1"/>
</svg>
