<svg width="48" height="48" viewBox="0 0 48 48" fill="none" xmlns="http://www.w3.org/2000/svg">
<rect width="48" height="48" rx="6" fill="white"/>
<rect x="0.5" y="0.5" width="47" height="47" rx="5.5" stroke="#0059B3" stroke-opacity="0.16"/>
<path d="M13.5 15C13.5 14.6022 13.658 14.2206 13.9393 13.9393C14.2206 13.658 14.6022 13.5 15 13.5H33C33.3978 13.5 33.7794 13.658 34.0607 13.9393C34.342 14.2206 34.5 14.6022 34.5 15V18C34.5 18.3978 34.342 18.7794 34.0607 19.0607C33.7794 19.342 33.3978 19.5 33 19.5H15C14.6022 19.5 14.2206 19.342 13.9393 19.0607C13.658 18.7794 13.5 18.3978 13.5 18V15ZM13.5 24C13.5 23.6022 13.658 23.2206 13.9393 22.9393C14.2206 22.658 14.6022 22.5 15 22.5H24C24.3978 22.5 24.7794 22.658 25.0607 22.9393C25.342 23.2206 25.5 23.6022 25.5 24V33C25.5 33.3978 25.342 33.7794 25.0607 34.0607C24.7794 34.342 24.3978 34.5 24 34.5H15C14.6022 34.5 14.2206 34.342 13.9393 34.0607C13.658 33.7794 13.5 33.3978 13.5 33V24ZM30 22.5C29.6022 22.5 29.2206 22.658 28.9393 22.9393C28.658 23.2206 28.5 23.6022 28.5 24V33C28.5 33.3978 28.658 33.7794 28.9393 34.0607C29.2206 34.342 29.6022 34.5 30 34.5H33C33.3978 34.5 33.7794 34.342 34.0607 34.0607C34.342 33.7794 34.5 33.3978 34.5 33V24C34.5 23.6022 34.342 23.2206 34.0607 22.9393C33.7794 22.658 33.3978 22.5 33 22.5H30Z" fill="#1279E1"/>
</svg>
