<svg width="48" height="48" viewBox="0 0 48 48" fill="none" xmlns="http://www.w3.org/2000/svg">
<rect width="48" height="48" rx="6" fill="#0073E6"/>
<path d="M33.375 24C33.3756 24.2448 33.3162 24.4857 33.2027 24.6991C33.0892 24.9125 32.9254 25.0912 32.7273 25.2178L20.4477 33.1627C20.2407 33.2968 20.0036 33.37 19.7609 33.3748C19.5181 33.3795 19.2786 33.3156 19.067 33.1898C18.8575 33.0658 18.6829 32.8851 18.5613 32.6662C18.4396 32.4472 18.3754 32.198 18.375 31.944V16.056C18.3754 15.802 18.4396 15.5528 18.5613 15.3338C18.6829 15.1149 18.8575 14.9342 19.067 14.8102C19.2786 14.6844 19.5181 14.6205 19.7609 14.6252C20.0036 14.63 20.2407 14.7032 20.4477 14.8373L32.7273 22.7822C32.9254 22.9088 33.0892 23.0875 33.2027 23.3009C33.3162 23.5143 33.3756 23.7552 33.375 24Z" fill="white"/>
</svg>
