<svg xmlns="http://www.w3.org/2000/svg" viewBox="0 0 74 74"><path d="M37 71.5c-9.6 0-17.8-3.4-24.4-10.1C5.8 54.4 2.5 46.5 2.5 37c0-9.6 3.4-17.8 10.1-24.4C19.2 5.9 27.4 2.5 37 2.5c9.6 0 17.8 3.4 24.4 10.1 6.8 6.9 10.1 14.9 10.1 24.4 0 9.6-3.4 17.8-10.1 24.4-7 6.8-14.9 10.1-24.4 10.1z" fill="#ccc"/><path d="M37 5c8.9 0 16.4 3.1 22.6 9.4C65.8 20.7 69 28.1 69 37s-3.1 16.4-9.4 22.6C53.3 65.8 45.9 69 37 69s-16.4-3.1-22.6-9.4S5 45.9 5 37s3.1-16.4 9.4-22.6C20.6 8.1 28.1 5 37 5m0-5C26.8 0 18 3.7 10.9 10.9 3.7 18 0 26.8 0 37c0 10 3.6 18.8 10.8 26.1C17.9 70.3 26.8 74 37 74c10 0 18.8-3.6 26.1-10.8C70.3 56.1 74 47.2 74 37c0-10-3.6-18.8-10.8-26.1C56.1 3.7 47.2 0 37 0z" fill="#fff"/><path d="M52.4 47.7L41.7 37l10.9-10.7c.6-.6.6-1.1 0-1.7l-3.1-3c-.3-.3-.6-.4-.9-.4-.2 0-.4.1-.7.4L37 32.1 26.1 21.6c-.3-.3-.5-.4-.7-.4-.3 0-.6.1-.9.4l-3 3c-.6.6-.6 1.1 0 1.7L32.4 37 21.6 47.9c-.2.1-.3.3-.3.7s.1.7.3.9l3 3.1c.2.2.5.3.9.3s.7-.1.9-.3L37 41.7l10.9 10.7c.3.3.5.4.7.4.3 0 .6-.1.9-.4l3-3c.3-.2.4-.5.4-.9 0-.2-.2-.5-.5-.8z" fill="#666"/></svg>