<svg width="16" height="16" viewBox="0 0 16 16" fill="none" xmlns="http://www.w3.org/2000/svg">
<path d="M0.800781 12.1992V6.79922C0.800781 6.1627 1.05364 5.55225 1.50372 5.10216C1.95381 4.65208 2.56426 4.39922 3.20078 4.39922C3.8373 4.39922 4.44775 4.65208 4.89784 5.10216C5.34793 5.55225 5.60078 6.1627 5.60078 6.79922V12.1992M0.800781 9.19922H5.60078M13.4008 7.99922H10.4008M13.4008 7.99922C13.8782 7.99922 14.336 7.80958 14.6736 7.47201C15.0111 7.13445 15.2008 6.67661 15.2008 6.19922C15.2008 5.72183 15.0111 5.26399 14.6736 4.92643C14.336 4.58886 13.8782 4.39922 13.4008 4.39922H10.4008V7.99922M13.4008 7.99922C13.8782 7.99922 14.336 8.18886 14.6736 8.52643C15.0111 8.86399 15.2008 9.32183 15.2008 9.79922C15.2008 10.2766 15.0111 10.7344 14.6736 11.072C14.336 11.4096 13.8782 11.5992 13.4008 11.5992H10.4008V7.99922M8.00078 0.199219V15.7992" stroke="#3F3F46"/>
</svg>
