<svg width="17" height="17" viewBox="0 0 17 17" fill="none" xmlns="http://www.w3.org/2000/svg">
<path d="M12.5002 9.22005H9.16683V12.5534C9.16683 12.7302 9.09659 12.8998 8.97157 13.0248C8.84654 13.1498 8.67697 13.2201 8.50016 13.2201C8.32335 13.2201 8.15378 13.1498 8.02876 13.0248C7.90373 12.8998 7.8335 12.7302 7.8335 12.5534V9.22005H4.50016C4.32335 9.22005 4.15378 9.14981 4.02876 9.02479C3.90373 8.89977 3.8335 8.7302 3.8335 8.55339C3.8335 8.37657 3.90373 8.20701 4.02876 8.08198C4.15378 7.95696 4.32335 7.88672 4.50016 7.88672H7.8335V4.55339C7.8335 4.37657 7.90373 4.207 8.02876 4.08198C8.15378 3.95696 8.32335 3.88672 8.50016 3.88672C8.67697 3.88672 8.84654 3.95696 8.97157 4.08198C9.09659 4.207 9.16683 4.37657 9.16683 4.55339V7.88672H12.5002C12.677 7.88672 12.8465 7.95696 12.9716 8.08198C13.0966 8.20701 13.1668 8.37657 13.1668 8.55339C13.1668 8.7302 13.0966 8.89977 12.9716 9.02479C12.8465 9.14981 12.677 9.22005 12.5002 9.22005Z" fill="#2A4A7E"/>
</svg>
