<svg width="12" height="18" viewBox="0 0 12 18" fill="none" xmlns="http://www.w3.org/2000/svg">
<path d="M1.2168 1.06074C2.26703 0.162806 3.87751 0.416047 7.09766 0.92207L8.4541 1.13496C10.0667 1.38837 10.8735 1.5152 11.3535 2.07637C11.8335 2.63766 11.833 3.45458 11.833 5.08711V12.9123C11.833 14.5445 11.8332 15.3608 11.3535 15.9221C10.8735 16.4834 10.0668 16.611 8.4541 16.8645L7.09766 17.0773C3.87738 17.5834 2.26702 17.8358 1.2168 16.9377C0.166813 16.0395 0.166992 14.4094 0.166992 11.1496V10.0002H4.75195L2.71875 12.5422L3.5 13.1662L4.28027 13.7912L7.61426 9.62422L8.11328 9.00019L7.61426 8.37519L4.28027 4.2082L3.5 4.8332L2.71875 5.4582L4.75293 8.00019H0.166992V6.8498C0.166992 3.5897 0.166523 1.95886 1.2168 1.06074Z" fill="white"/>
</svg>
