<svg width="17" height="17" viewBox="0 0 17 17" fill="none" xmlns="http://www.w3.org/2000/svg">
<path fill-rule="evenodd" clip-rule="evenodd" d="M8.50008 14.4688C9.584 14.4688 10.6477 14.1753 11.5782 13.6193C12.5086 13.0634 13.2711 12.2657 13.7846 11.3112C14.2981 10.3566 14.5434 9.28075 14.4945 8.19794C14.4456 7.11513 14.1042 6.06579 13.5068 5.16142L8.73675 10.4614C8.51394 10.709 8.20653 10.8643 7.875 10.8966C7.54348 10.9289 7.21186 10.836 6.94542 10.6361L4.76675 9.00208C4.6253 8.896 4.53179 8.73807 4.50678 8.56303C4.48178 8.388 4.52733 8.2102 4.63342 8.06875C4.7395 7.9273 4.89744 7.83379 5.07247 7.80878C5.2475 7.78378 5.4253 7.82933 5.56675 7.93542L7.74542 9.56942L12.6428 4.12875C11.9333 3.45149 11.0686 2.95848 10.1244 2.6929C9.18024 2.42731 8.18534 2.39725 7.22684 2.60533C6.26834 2.81342 5.37547 3.25331 4.6264 3.88649C3.87733 4.51967 3.29491 5.32684 2.93014 6.23731C2.56536 7.14778 2.42935 8.1338 2.53402 9.10903C2.63868 10.0843 2.98083 11.019 3.53051 11.8313C4.08019 12.6436 4.82063 13.3088 5.687 13.7686C6.55337 14.2284 7.51926 14.4688 8.50008 14.4688Z" fill="#0059B3"/>
</svg>
