<svg width="37" height="38" viewBox="0 0 37 38" fill="none" xmlns="http://www.w3.org/2000/svg">
<path d="M0 1C0 0.447716 0.447715 0 1 0H37V38H0.999999C0.447715 38 0 37.5523 0 37V1Z" fill="#ECF6FF"/>
<path d="M11.5 24.25C11.5 25.525 12.475 26.5 13.75 26.5H24.25C25.525 26.5 26.5 25.525 26.5 24.25V18.25H11.5V24.25ZM24.25 13H22.75V12.25C22.75 11.8 22.45 11.5 22 11.5C21.55 11.5 21.25 11.8 21.25 12.25V13H16.75V12.25C16.75 11.8 16.45 11.5 16 11.5C15.55 11.5 15.25 11.8 15.25 12.25V13H13.75C12.475 13 11.5 13.975 11.5 15.25V16.75H26.5V15.25C26.5 13.975 25.525 13 24.25 13Z" fill="#1279E1"/>
</svg>
