<svg width="28" height="30" viewBox="0 0 28 30" fill="none" xmlns="http://www.w3.org/2000/svg">
<path d="M14.0007 10C13.0118 10 12.0451 10.2932 11.2229 10.8427C10.4006 11.3921 9.75978 12.173 9.38134 13.0866C9.0029 14.0002 8.90389 15.0055 9.09681 15.9755C9.28974 16.9454 9.76594 17.8363 10.4652 18.5355C11.1645 19.2348 12.0554 19.711 13.0253 19.9039C13.9952 20.0969 15.0005 19.9978 15.9142 19.6194C16.8278 19.241 17.6087 18.6001 18.1581 17.7779C18.7075 16.9556 19.0007 15.9889 19.0007 15C18.9968 13.6751 18.4687 12.4057 17.5319 11.4688C16.5951 10.532 15.3256 10.004 14.0007 10ZM24.7957 15C24.7931 15.4672 24.7589 15.9337 24.6932 16.3962L27.7364 18.7787C27.8689 18.8882 27.9582 19.0412 27.9883 19.2104C28.0184 19.3796 27.9874 19.5541 27.9007 19.7025L25.022 24.6725C24.9345 24.8196 24.7979 24.9312 24.6362 24.9875C24.4746 25.0439 24.2983 25.0415 24.1382 24.9806L20.5601 23.5431C19.815 24.1169 18.9997 24.593 18.1339 24.96L17.5989 28.7588C17.5689 28.9289 17.4808 29.0834 17.3496 29.1958C17.2184 29.3082 17.0522 29.3715 16.8795 29.375H11.122C10.9524 29.3717 10.7889 29.311 10.6583 29.2028C10.5276 29.0946 10.4375 28.9454 10.4026 28.7794L9.86761 24.9806C8.99941 24.6179 8.18347 24.141 7.44137 23.5625L3.86324 25C3.70329 25.0609 3.527 25.0634 3.36537 25.0072C3.20373 24.9509 3.0671 24.8395 2.97949 24.6925L0.10074 19.7231C0.0140885 19.5747 -0.0169548 19.4003 0.0131575 19.231C0.0432698 19.0618 0.132575 18.9088 0.265115 18.7994L3.30824 16.4169C3.24333 15.9473 3.20909 15.474 3.20574 15C3.20834 14.5328 3.24259 14.0663 3.30824 13.6038L0.265115 11.2212C0.132575 11.1118 0.0432698 10.9588 0.0131575 10.7896C-0.0169548 10.6204 0.0140885 10.4459 0.10074 10.2975L2.97949 5.3275C3.067 5.18037 3.20359 5.06882 3.36524 5.01246C3.52688 4.9561 3.70322 4.95855 3.86324 5.01937L7.44137 6.45687C8.18644 5.88313 9.0018 5.40698 9.86761 5.04L10.4026 1.24125C10.4326 1.07109 10.5207 0.916616 10.6519 0.804215C10.7831 0.691815 10.9493 0.628468 11.122 0.625H16.8795C17.0491 0.628301 17.2126 0.688995 17.3432 0.797173C17.4739 0.905351 17.564 1.05462 17.5989 1.22062L18.1339 5.01937C19.0032 5.38186 19.8202 5.85878 20.5632 6.4375L24.1382 5C24.2982 4.93912 24.4745 4.93658 24.6361 4.99282C24.7977 5.04906 24.9344 5.16048 25.022 5.3075L27.9007 10.2775C27.9874 10.4259 28.0184 10.6004 27.9883 10.7696C27.9582 10.9388 27.8689 11.0918 27.7364 11.2013L24.6932 13.5837C24.7581 14.0531 24.7924 14.5262 24.7957 15Z" fill="#52525B"/>
</svg>
