<svg width="18" height="18" viewBox="0 0 18 18" fill="none" xmlns="http://www.w3.org/2000/svg">
<path d="M9.26736 5.56202C9.06396 5.38574 8.98375 5.10872 9.08975 4.86249C9.15563 4.71418 9.22725 4.56868 9.30746 4.42878L9.39627 4.27768C9.48221 4.13777 9.57675 4.00066 9.67701 3.86915C9.8403 3.65649 10.1268 3.58654 10.3846 3.67048L11.1924 3.93071C11.499 3.68447 11.8513 3.48301 12.2295 3.3459L12.4042 2.53444C12.4587 2.27422 12.6649 2.06716 12.9342 2.03638C13.1233 2.01119 13.3152 2 13.51 2H13.5301C13.7249 2 13.9168 2.01119 14.1059 2.03358C14.3751 2.06436 14.5814 2.27422 14.6358 2.53164L14.8106 3.3459C15.1916 3.48581 15.5411 3.68447 15.8476 3.93071L16.6583 3.67328C16.9162 3.58934 17.2026 3.65929 17.3659 3.87195C17.4662 4.00346 17.5607 4.14057 17.6495 4.28047L17.7355 4.42878C17.8157 4.56868 17.8873 4.71418 17.9532 4.86528C18.0592 5.10872 17.979 5.38574 17.7756 5.56482L17.1396 6.11885C17.1711 6.30632 17.1883 6.50219 17.1883 6.70086C17.1883 6.89952 17.1711 7.09539 17.1396 7.28566L17.7756 7.83969C17.979 8.01598 18.0592 8.29299 17.9532 8.53923C17.8873 8.68753 17.8157 8.83303 17.7355 8.97573L17.6495 9.12124C17.5636 9.26394 17.469 9.39825 17.3659 9.52976C17.2026 9.74242 16.9162 9.81238 16.6583 9.72843L15.8505 9.4682C15.544 9.71444 15.1916 9.91591 14.8134 10.053L14.6387 10.8673C14.5843 11.1275 14.378 11.3346 14.1087 11.3653C13.9168 11.3877 13.722 11.3989 13.5243 11.3989C13.3267 11.3989 13.1319 11.3877 12.9399 11.3653C12.6706 11.3346 12.4644 11.1247 12.41 10.8673L12.2352 10.053C11.8542 9.91311 11.5047 9.71444 11.1982 9.4682L10.3903 9.72843C10.1325 9.81238 9.84603 9.74242 9.68274 9.52976C9.58248 9.39825 9.48794 9.26394 9.402 9.12124L9.31319 8.97014C9.23298 8.83023 9.16136 8.68473 9.09548 8.53643C8.98948 8.29299 9.06969 8.01598 9.27309 7.8369L9.90905 7.28287C9.87754 7.09259 9.86035 6.89672 9.86035 6.69806C9.86035 6.49939 9.87754 6.30352 9.90905 6.11325L9.27309 5.55922L9.26736 5.56202ZM14.8965 6.70086C14.8965 6.34464 14.7517 6.00302 14.4938 5.75114C14.2359 5.49926 13.8862 5.35775 13.5215 5.35775C13.1568 5.35775 12.807 5.49926 12.5491 5.75114C12.2913 6.00302 12.1464 6.34464 12.1464 6.70086C12.1464 7.05707 12.2913 7.39869 12.5491 7.65057C12.807 7.90245 13.1568 8.04396 13.5215 8.04396C13.8862 8.04396 14.2359 7.90245 14.4938 7.65057C14.7517 7.39869 14.8965 7.05707 14.8965 6.70086ZM3.64678 15.7808C3.46631 15.9794 3.1827 16.0578 2.9306 15.9543C2.77877 15.8899 2.62981 15.82 2.48657 15.7416L2.33188 15.6549C2.18864 15.5709 2.04827 15.4786 1.91363 15.3807C1.69591 15.2212 1.62429 14.9413 1.71024 14.6895L1.97665 13.9004C1.72456 13.601 1.5183 13.2569 1.37793 12.8875L0.544296 12.7168C0.277877 12.6637 0.0658888 12.4622 0.0343769 12.1992C0.0114592 12.0117 -3.33087e-08 11.8214 -3.33087e-08 11.6284C-3.33087e-08 11.4353 0.0114592 11.245 0.0343769 11.0575C0.0658888 10.7945 0.280742 10.5931 0.544296 10.5399L1.37793 10.3664C1.52116 9.99425 1.72456 9.65288 1.97665 9.35348L1.71024 8.56441C1.62429 8.31258 1.69591 8.03276 1.91363 7.87327C2.04827 7.77534 2.18864 7.683 2.33188 7.59626L2.48371 7.51231C2.62695 7.43397 2.77591 7.36401 2.9306 7.29966C3.17984 7.19612 3.46344 7.27447 3.64678 7.47314L4.214 8.09432C4.4088 8.06354 4.60933 8.04676 4.81272 8.04676C5.01612 8.04676 5.21665 8.06354 5.41145 8.09432L5.97866 7.47314C6.15914 7.27447 6.44275 7.19612 6.69484 7.29966C6.84667 7.36401 6.99564 7.43397 7.14174 7.51231L7.2907 7.59626C7.4368 7.6802 7.57431 7.77254 7.70895 7.87327C7.92667 8.03276 7.99829 8.31258 7.91235 8.56441L7.64593 9.35348C7.89802 9.65288 8.10428 9.99705 8.24465 10.3664L9.07829 10.5343C9.34471 10.5875 9.55669 10.7889 9.58821 11.0519C9.61112 11.2394 9.62258 11.4297 9.62258 11.6228C9.62258 11.8158 9.61112 12.0061 9.58821 12.1936C9.55669 12.4566 9.34184 12.6581 9.07829 12.7112L8.24465 12.8819C8.10142 13.2541 7.89802 13.5954 7.64593 13.8948L7.91235 14.6839C7.99829 14.9357 7.92667 15.2156 7.70895 15.3751C7.57431 15.473 7.4368 15.5653 7.2907 15.6493L7.13601 15.736C6.99277 15.8144 6.84381 15.8843 6.69198 15.9487C6.44275 16.0522 6.15914 15.9739 5.9758 15.7752L5.40858 15.154C5.21378 15.1848 5.01325 15.2016 4.80986 15.2016C4.60646 15.2016 4.40593 15.1848 4.21113 15.154L3.64392 15.7752L3.64678 15.7808ZM4.81272 10.2825C4.63215 10.2825 4.45334 10.3172 4.28651 10.3847C4.11968 10.4522 3.96809 10.5511 3.84041 10.6758C3.71272 10.8006 3.61143 10.9486 3.54233 11.1116C3.47323 11.2745 3.43766 11.4492 3.43766 11.6256C3.43766 11.8019 3.47323 11.9766 3.54233 12.1395C3.61143 12.3025 3.71272 12.4506 3.84041 12.5753C3.96809 12.7 4.11968 12.7989 4.28651 12.8664C4.45334 12.9339 4.63215 12.9687 4.81272 12.9687C4.9933 12.9687 5.17211 12.9339 5.33894 12.8664C5.50577 12.7989 5.65735 12.7 5.78504 12.5753C5.91273 12.4506 6.01401 12.3025 6.08312 12.1395C6.15222 11.9766 6.18779 11.8019 6.18779 11.6256C6.18779 11.4492 6.15222 11.2745 6.08312 11.1116C6.01401 10.9486 5.91273 10.8006 5.78504 10.6758C5.65735 10.5511 5.50577 10.4522 5.33894 10.3847C5.17211 10.3172 4.9933 10.2825 4.81272 10.2825Z" fill="#3F3F46"/>
</svg>
