<svg width="18" height="18" viewBox="0 0 18 18" fill="none" xmlns="http://www.w3.org/2000/svg">
<g clip-path="url(#clip0_2018_3549)">
<path d="M14.625 12.75L16.5 14.625L14.625 16.5" stroke="#3F3F46" stroke-width="1.5" stroke-linecap="round" stroke-linejoin="round"/>
<path d="M3 4.5C3.39782 4.5 3.77936 4.34196 4.06066 4.06066C4.34196 3.77936 4.5 3.39782 4.5 3C4.5 2.60218 4.34196 2.22064 4.06066 1.93934C3.77936 1.65804 3.39782 1.5 3 1.5C2.60218 1.5 2.22064 1.65804 1.93934 1.93934C1.65804 2.22064 1.5 2.60218 1.5 3C1.5 3.39782 1.65804 3.77936 1.93934 4.06066C2.22064 4.34196 2.60218 4.5 3 4.5Z" stroke="#3F3F46" stroke-width="1.5" stroke-linejoin="round"/>
<path d="M4.5 3H7.5C7.89782 3 8.27936 3.15804 8.56066 3.43934C8.84196 3.72064 9 4.10218 9 4.5V13.125C9 13.5228 9.15804 13.9044 9.43934 14.1857C9.72064 14.467 10.1022 14.625 10.5 14.625H16.5" stroke="#3F3F46" stroke-width="1.5" stroke-linecap="round" stroke-linejoin="round"/>
</g>
<defs>
<clipPath id="clip0_2018_3549">
<rect width="18" height="18" fill="white"/>
</clipPath>
</defs>
</svg>
