<svg width="39" height="39" viewBox="0 0 39 39" fill="none" xmlns="http://www.w3.org/2000/svg">
<circle cx="19.5" cy="19.5" r="19.5" fill="#F4F8FF"/>
<path fill-rule="evenodd" clip-rule="evenodd" d="M30.375 20.5C30.375 26.5061 25.5061 31.375 19.5 31.375C13.4939 31.375 8.625 26.5061 8.625 20.5C8.625 14.4939 13.4939 9.625 19.5 9.625C25.5061 9.625 30.375 14.4939 30.375 20.5ZM20.7077 15.6666C20.7077 16.334 20.1667 16.875 19.4993 16.875C18.832 16.875 18.291 16.334 18.291 15.6666C18.291 14.9993 18.832 14.4583 19.4993 14.4583C20.1667 14.4583 20.7077 14.9993 20.7077 15.6666ZM20.5 26.5417V19.2917H18.5V26.5417H20.5Z" fill="#0059B3"/>
</svg>
