<svg width="18" height="18" viewBox="0 0 18 18" fill="none" xmlns="http://www.w3.org/2000/svg">
<path d="M12 2.25C12.5739 2.24997 13.1261 2.46924 13.5437 2.86296C13.9613 3.25668 14.2126 3.79508 14.2463 4.368L14.25 4.5V12H14.8125C15.2978 12 15.6975 12.369 15.7455 12.8415L15.75 12.9375V14.25C15.75 14.8239 15.5308 15.3761 15.137 15.7937C14.7433 16.2113 14.2049 16.4626 13.632 16.4963L13.5 16.5H6C5.42609 16.5 4.87386 16.2808 4.4563 15.887C4.03874 15.4933 3.78742 14.9549 3.75375 14.382L3.75 14.25V6.75H2.4375C2.20541 6.75011 1.98152 6.66412 1.80918 6.50867C1.63683 6.35322 1.52827 6.13937 1.5045 5.9085L1.5 5.8125V4.5C1.49997 3.92609 1.71924 3.37386 2.11296 2.9563C2.50668 2.53874 3.04508 2.28742 3.618 2.25375L3.75 2.25H12ZM14.25 13.5H7.5V14.25C7.5 14.5125 7.455 14.7653 7.3725 15H13.5C13.6989 15 13.8897 14.921 14.0303 14.7803C14.171 14.6397 14.25 14.4489 14.25 14.25V13.5ZM9 9H7.5C7.30884 9.00021 7.12498 9.07341 6.98597 9.20464C6.84697 9.33586 6.76332 9.51521 6.75212 9.70605C6.74092 9.89688 6.80301 10.0848 6.9257 10.2314C7.04839 10.378 7.22243 10.4722 7.41225 10.4948L7.5 10.5H9C9.19116 10.4998 9.37502 10.4266 9.51403 10.2954C9.65303 10.1641 9.73668 9.98479 9.74788 9.79395C9.75908 9.60312 9.69699 9.41522 9.5743 9.26863C9.45161 9.12204 9.27757 9.02783 9.08775 9.00525L9 9ZM10.5 6H7.5C7.30109 6 7.11032 6.07902 6.96967 6.21967C6.82902 6.36032 6.75 6.55109 6.75 6.75C6.75 6.94891 6.82902 7.13968 6.96967 7.28033C7.11032 7.42098 7.30109 7.5 7.5 7.5H10.5C10.6989 7.5 10.8897 7.42098 11.0303 7.28033C11.171 7.13968 11.25 6.94891 11.25 6.75C11.25 6.55109 11.171 6.36032 11.0303 6.21967C10.8897 6.07902 10.6989 6 10.5 6ZM3.75 3.75C3.55109 3.75 3.36032 3.82902 3.21967 3.96967C3.07902 4.11032 3 4.30109 3 4.5V5.25H3.75V3.75Z" fill="#0059B3"/>
</svg>
