<svg width="39" height="40" viewBox="0 0 39 40" fill="none" xmlns="http://www.w3.org/2000/svg">
<circle cx="19.5" cy="20" r="19.5" fill="#F4F8FF"/>
<path d="M19 32C17.2708 32 15.6458 31.6717 14.125 31.015C12.6042 30.3583 11.2813 29.4679 10.1563 28.3438C9.03125 27.2188 8.14083 25.8958 7.485 24.375C6.82917 22.8542 6.50083 21.2292 6.5 19.5C6.5 17.9375 6.80208 16.4063 7.40625 14.9063C8.01042 13.4063 8.85417 12.0675 9.9375 10.89C11.0208 9.71333 12.3229 8.76542 13.8438 8.04625C15.3646 7.32708 17.0313 6.96792 18.8438 6.96875C19.2813 6.96875 19.7292 6.98958 20.1875 7.03125C20.6458 7.07292 21.1146 7.14583 21.5938 7.25C21.4063 8.1875 21.4688 9.07292 21.7813 9.90625C22.0938 10.7396 22.5625 11.4321 23.1875 11.9838C23.8125 12.5363 24.5575 12.9167 25.4225 13.125C26.2875 13.3333 27.1779 13.2813 28.0938 12.9688C27.5521 14.1979 27.6304 15.375 28.3288 16.5C29.0271 17.625 30.0633 18.2083 31.4375 18.25C31.4583 18.4792 31.4742 18.6925 31.485 18.89C31.4958 19.0875 31.5008 19.3013 31.5 19.5313C31.5 21.2396 31.1717 22.8488 30.515 24.3588C29.8583 25.8688 28.9679 27.1917 27.8438 28.3275C26.7188 29.4633 25.3958 30.3592 23.875 31.015C22.3542 31.6708 20.7292 31.9992 19 32ZM17.125 17C17.6458 17 18.0888 16.8179 18.4538 16.4538C18.8188 16.0896 19.0008 15.6467 19 15.125C19 14.6042 18.8179 14.1617 18.4538 13.7975C18.0896 13.4333 17.6467 13.2508 17.125 13.25C16.6042 13.25 16.1617 13.4325 15.7975 13.7975C15.4333 14.1625 15.2508 14.605 15.25 15.125C15.25 15.6458 15.4325 16.0888 15.7975 16.4538C16.1625 16.8188 16.605 17.0008 17.125 17ZM14.625 23.25C15.1458 23.25 15.5888 23.0679 15.9538 22.7038C16.3188 22.3396 16.5008 21.8967 16.5 21.375C16.5 20.8542 16.3179 20.4117 15.9538 20.0475C15.5896 19.6833 15.1467 19.5008 14.625 19.5C14.1042 19.5 13.6617 19.6825 13.2975 20.0475C12.9333 20.4125 12.7508 20.855 12.75 21.375C12.75 21.8958 12.9325 22.3388 13.2975 22.7038C13.6625 23.0688 14.105 23.2508 14.625 23.25ZM22.75 24.5C23.1042 24.5 23.4013 24.38 23.6413 24.14C23.8813 23.9 24.0008 23.6033 24 23.25C24 22.8958 23.88 22.5992 23.64 22.36C23.4 22.1208 23.1033 22.0008 22.75 22C22.3958 22 22.0992 22.12 21.86 22.36C21.6208 22.6 21.5008 22.8967 21.5 23.25C21.5 23.6042 21.62 23.9013 21.86 24.1413C22.1 24.3813 22.3967 24.5008 22.75 24.5Z" fill="#0059B3"/>
</svg>
