<svg width="18" height="18" viewBox="0 0 18 18" fill="none" xmlns="http://www.w3.org/2000/svg">
<path d="M16.4968 3.21308C16.4968 3.21308 16.7398 2.49308 16.2178 1.98908C15.7408 1.52108 15.1198 1.77308 15.1198 1.77308C14.5708 2.04308 9.93577 4.89608 8.21677 6.78608C7.44277 7.65008 6.36277 10.1971 7.23577 11.1241C8.06377 12.0061 10.7998 10.9711 11.5468 10.2241C13.4008 8.37007 16.2358 3.77108 16.4968 3.21308ZM1.25977 15.8851C3.39277 14.4811 2.57377 12.8161 4.16677 11.7091C5.00377 11.1241 6.16477 11.1511 6.93877 11.9701C7.50577 12.5731 7.65877 14.2831 6.79477 15.0841C5.38177 16.3891 3.19477 16.4791 1.25977 15.8851Z" fill="#3F3F46"/>
</svg>
