<svg width="18" height="18" viewBox="0 0 18 18" fill="none" xmlns="http://www.w3.org/2000/svg">
<path d="M16.4987 3.21308C16.4987 3.21308 16.7417 2.49308 16.2197 1.98908C15.7427 1.52108 15.1217 1.77308 15.1217 1.77308C14.5727 2.04308 9.93772 4.89608 8.21872 6.78608C7.44472 7.65008 6.36472 10.1971 7.23772 11.1241C8.06572 12.0061 10.8017 10.9711 11.5487 10.2241C13.4027 8.37007 16.2377 3.77108 16.4987 3.21308ZM1.26172 15.8851C3.39472 14.4811 2.57572 12.8161 4.16872 11.7091C5.00572 11.1241 6.16672 11.1511 6.94072 11.9701C7.50772 12.5731 7.66072 14.2831 6.79672 15.0841C5.38372 16.3891 3.19672 16.4791 1.26172 15.8851Z" fill="#0059B3"/>
</svg>
