<svg width="39" height="39" viewBox="0 0 39 39" fill="none" xmlns="http://www.w3.org/2000/svg">
<circle cx="19.5" cy="19.5" r="19.5" fill="#F4F8FF"/>
<path fill-rule="evenodd" clip-rule="evenodd" d="M24.4072 22.6234L31.1322 29.3484C31.3686 29.585 31.5013 29.9057 31.5012 30.2401C31.501 30.5745 31.3681 30.8952 31.1316 31.1316C30.895 31.3679 30.5743 31.5007 30.2399 31.5005C29.9055 31.5004 29.5848 31.3675 29.3484 31.1309L22.6234 24.4059C20.6131 25.963 18.085 26.6958 15.5536 26.4551C13.0221 26.2145 10.6775 25.0185 8.99653 23.1104C7.3156 21.2024 6.42467 18.7257 6.505 16.1841C6.58532 13.6425 7.63087 11.227 9.42894 9.42894C11.227 7.63087 13.6425 6.58532 16.1841 6.505C18.7257 6.42467 21.2024 7.3156 23.1104 8.99653C25.0185 10.6775 26.2145 13.0221 26.4551 15.5536C26.6958 18.085 25.963 20.6131 24.4059 22.6234H24.4072ZM16.5009 23.9997C18.4901 23.9997 20.3977 23.2095 21.8042 21.803C23.2108 20.3965 24.0009 18.4888 24.0009 16.4997C24.0009 14.5106 23.2108 12.6029 21.8042 11.1964C20.3977 9.78986 18.4901 8.99968 16.5009 8.99968C14.5118 8.99968 12.6042 9.78986 11.1976 11.1964C9.79111 12.6029 9.00093 14.5106 9.00093 16.4997C9.00093 18.4888 9.79111 20.3965 11.1976 21.803C12.6042 23.2095 14.5118 23.9997 16.5009 23.9997Z" fill="#0059B3"/>
</svg>
