<svg width="24" height="34" viewBox="0 0 24 34" fill="none" xmlns="http://www.w3.org/2000/svg">
<path d="M8.66863 4.85156H5.86511C5.36942 4.85156 4.89402 5.04848 4.54352 5.39898C4.19301 5.74949 3.99609 6.22488 3.99609 6.72058V15.1311C3.99609 15.6268 4.19301 16.1022 4.54352 16.4527C4.89402 16.8032 5.36942 17.0002 5.86511 17.0002H14.2757C14.7714 17.0002 15.2468 16.8032 15.5973 16.4527C15.9478 16.1022 16.1447 15.6268 16.1447 15.1311V12.3276" stroke="#616F86" stroke-width="1.5" stroke-linecap="round" stroke-linejoin="round"/>
<path d="M8.66797 12.3275H11.4715L19.4148 4.38415C19.7866 4.01238 19.9954 3.50815 19.9954 2.98239C19.9954 2.45663 19.7866 1.9524 19.4148 1.58063C19.043 1.20886 18.5388 1 18.013 1C17.4873 1 16.9831 1.20886 16.6113 1.58063L8.66797 9.52394V12.3275Z" stroke="#616F86" stroke-width="1.5" stroke-linecap="round" stroke-linejoin="round"/>
<path d="M15.209 2.98242L18.0125 5.78594" stroke="#616F86" stroke-width="1.5" stroke-linecap="round" stroke-linejoin="round"/>
<path d="M8.41016 31.3848V32H3.61133V31.3848H8.41016ZM3.82812 23.4688V32H3.10742V23.4688H3.82812ZM7.8125 27.2949V27.9102H3.61133V27.2949H7.8125ZM8.38086 23.4688V24.0898H3.61133V23.4688H8.38086ZM13.7773 30.7695V23H14.4805V32H13.8242L13.7773 30.7695ZM9.37695 28.8945V28.7715C9.37695 28.2793 9.43359 27.8359 9.54688 27.4414C9.66016 27.043 9.82227 26.7031 10.0332 26.4219C10.248 26.1367 10.5059 25.9199 10.8066 25.7715C11.1074 25.6191 11.4473 25.543 11.8262 25.543C12.1973 25.543 12.5254 25.6035 12.8105 25.7246C13.0957 25.8457 13.3398 26.0195 13.543 26.2461C13.75 26.4727 13.916 26.7422 14.041 27.0547C14.1699 27.3672 14.2637 27.7148 14.3223 28.0977V29.6621C14.2754 30.0215 14.1895 30.3516 14.0645 30.6523C13.9395 30.9492 13.7734 31.209 13.5664 31.4316C13.3594 31.6504 13.1094 31.8203 12.8164 31.9414C12.5273 32.0586 12.1934 32.1172 11.8145 32.1172C11.4395 32.1172 11.1016 32.0391 10.8008 31.8828C10.5 31.7266 10.2441 31.5059 10.0332 31.2207C9.82227 30.9316 9.66016 30.5898 9.54688 30.1953C9.43359 29.8008 9.37695 29.3672 9.37695 28.8945ZM10.0801 28.7715V28.8945C10.0801 29.2656 10.1172 29.6094 10.1914 29.9258C10.2656 30.2422 10.3789 30.5176 10.5312 30.752C10.6836 30.9863 10.877 31.1699 11.1113 31.3027C11.3457 31.4355 11.623 31.502 11.9434 31.502C12.3457 31.502 12.6836 31.4258 12.957 31.2734C13.2305 31.1172 13.4492 30.9121 13.6133 30.6582C13.7773 30.4004 13.8965 30.1191 13.9707 29.8145V27.9922C13.9238 27.7852 13.8555 27.5742 13.7656 27.3594C13.6758 27.1445 13.5527 26.9473 13.3965 26.7676C13.2441 26.584 13.0488 26.4375 12.8105 26.3281C12.5762 26.2148 12.291 26.1582 11.9551 26.1582C11.6309 26.1582 11.3516 26.2246 11.1172 26.3574C10.8828 26.4902 10.6875 26.6758 10.5312 26.9141C10.3789 27.1484 10.2656 27.4238 10.1914 27.7402C10.1172 28.0566 10.0801 28.4004 10.0801 28.7715ZM17.1055 25.6602V32H16.4082V25.6602H17.1055ZM16.2852 23.8262C16.2852 23.6934 16.3262 23.582 16.4082 23.4922C16.4941 23.3984 16.6113 23.3516 16.7598 23.3516C16.9082 23.3516 17.0254 23.3984 17.1113 23.4922C17.2012 23.582 17.2461 23.6934 17.2461 23.8262C17.2461 23.9551 17.2012 24.0664 17.1113 24.1602C17.0254 24.25 16.9082 24.2949 16.7598 24.2949C16.6113 24.2949 16.4941 24.25 16.4082 24.1602C16.3262 24.0664 16.2852 23.9551 16.2852 23.8262ZM21.418 25.6602V26.2344H18.2422V25.6602H21.418ZM19.4082 24.0312H20.1055V30.459C20.1055 30.752 20.1445 30.9727 20.2227 31.1211C20.3008 31.2695 20.4023 31.3691 20.5273 31.4199C20.6523 31.4707 20.7871 31.4961 20.9316 31.4961C21.0371 31.4961 21.1387 31.4902 21.2363 31.4785C21.334 31.4629 21.4219 31.4473 21.5 31.4316L21.5293 32.0234C21.4434 32.0508 21.332 32.0723 21.1953 32.0879C21.0586 32.1074 20.9219 32.1172 20.7852 32.1172C20.5156 32.1172 20.2773 32.0684 20.0703 31.9707C19.8633 31.8691 19.7012 31.6973 19.584 31.4551C19.4668 31.209 19.4082 30.875 19.4082 30.4531V24.0312Z" fill="#292929"/>
</svg>
