<svg width="15" height="14" viewBox="0 0 15 14" fill="none" xmlns="http://www.w3.org/2000/svg">
<path d="M2.83329 13H12.1666M7.20796 1.17734C7.23673 1.12508 7.27901 1.08149 7.33037 1.05114C7.38173 1.02079 7.4403 1.00478 7.49996 1.00478C7.55962 1.00478 7.61818 1.02079 7.66955 1.05114C7.72091 1.08149 7.76318 1.12508 7.79196 1.17734L9.75996 4.91334C9.80689 4.99985 9.87239 5.07489 9.95176 5.13308C10.0311 5.19128 10.1224 5.23117 10.219 5.24991C10.3156 5.26865 10.4152 5.26576 10.5106 5.24146C10.606 5.21715 10.6948 5.17203 10.7706 5.10934L13.622 2.66667C13.6767 2.62215 13.7441 2.59615 13.8146 2.59241C13.8851 2.58866 13.9549 2.60737 14.014 2.64584C14.0732 2.6843 14.1186 2.74054 14.1437 2.80647C14.1689 2.87239 14.1725 2.94459 14.154 3.01267L12.2646 9.84334C12.2261 9.98312 12.143 10.1065 12.028 10.1948C11.913 10.2831 11.7723 10.3315 11.6273 10.3327H3.37329C3.22818 10.3317 3.08736 10.2833 2.97222 10.195C2.85707 10.1067 2.77389 9.98322 2.73529 9.84334L0.846624 3.01334C0.828124 2.94525 0.831705 2.87305 0.856851 2.80713C0.881998 2.74121 0.927412 2.68497 0.986558 2.6465C1.0457 2.60804 1.11553 2.58933 1.18598 2.59307C1.25644 2.59682 1.32389 2.62282 1.37862 2.66734L4.22929 5.11001C4.30516 5.1727 4.39396 5.21782 4.48933 5.24212C4.5847 5.26643 4.68427 5.26932 4.78089 5.25058C4.87751 5.23184 4.96878 5.19194 5.04815 5.13375C5.12752 5.07556 5.19303 5.00051 5.23996 4.91401L7.20796 1.17734Z" stroke="white" stroke-width="1.5" stroke-linecap="round" stroke-linejoin="round"/>
</svg>
