<svg width="12" height="10" viewBox="0 0 12 10" fill="none" xmlns="http://www.w3.org/2000/svg">
<path d="M2.50021 9.49999H9.50021M5.78121 0.632993C5.80279 0.593796 5.8345 0.561109 5.87302 0.538345C5.91154 0.51558 5.95547 0.503571 6.00021 0.503571C6.04496 0.503571 6.08888 0.51558 6.1274 0.538345C6.16593 0.561109 6.19763 0.593796 6.21921 0.632993L7.69521 3.43499C7.73041 3.49987 7.77954 3.55616 7.83907 3.5998C7.89859 3.64345 7.96705 3.67337 8.03951 3.68742C8.11198 3.70148 8.18665 3.69931 8.25818 3.68108C8.32971 3.66285 8.39631 3.62901 8.45321 3.58199L10.5917 1.74999C10.6328 1.7166 10.6834 1.6971 10.7362 1.69429C10.789 1.69148 10.8414 1.70552 10.8858 1.73437C10.9301 1.76322 10.9642 1.8054 10.983 1.85484C11.0019 1.90428 11.0046 1.95843 10.9907 2.00949L9.57371 7.13249C9.54479 7.23733 9.48247 7.32987 9.39622 7.3961C9.30996 7.46233 9.20446 7.49863 9.09571 7.49949H2.90521C2.79638 7.49873 2.69077 7.46248 2.60441 7.39625C2.51805 7.33001 2.45566 7.23741 2.42671 7.13249L1.01021 2.00999C0.996337 1.95893 0.999023 1.90478 1.01788 1.85534C1.03674 1.8059 1.0708 1.76372 1.11516 1.73487C1.15952 1.70602 1.21189 1.69198 1.26473 1.69479C1.31757 1.6976 1.36816 1.7171 1.40921 1.75049L3.54721 3.58249C3.60411 3.62951 3.67072 3.66335 3.74224 3.68158C3.81377 3.69981 3.88845 3.70198 3.96091 3.68792C4.03338 3.67387 4.10183 3.64395 4.16136 3.6003C4.22089 3.55666 4.27001 3.50037 4.30521 3.43549L5.78121 0.632993Z" stroke="#FAB725" stroke-linecap="round" stroke-linejoin="round"/>
</svg>
