<svg width="48" height="48" viewBox="0 0 48 48" fill="none" xmlns="http://www.w3.org/2000/svg">
<rect width="48" height="48" rx="6" fill="#0073E6"/>
<path d="M32.4 27.4494C32.8375 26.3869 33.075 25.2494 33.075 23.9994C33.075 23.0994 32.9375 22.2369 32.7 21.4369C31.8875 21.6244 31.0375 21.7244 30.15 21.7244C28.3325 21.7263 26.5411 21.2913 24.9269 20.4559C23.3127 19.6205 21.923 18.4093 20.875 16.9244C19.7539 19.6371 17.6389 21.8191 14.9625 23.0244C14.9125 23.3369 14.9125 23.6744 14.9125 23.9994C14.9125 25.1928 15.1476 26.3745 15.6042 27.477C16.0609 28.5796 16.7303 29.5814 17.5742 30.4252C19.2784 32.1295 21.5898 33.0869 24 33.0869C25.3125 33.0869 26.575 32.7994 27.7125 32.2869C28.425 33.6494 28.75 34.3244 28.725 34.3244C26.675 35.0119 25.0875 35.3494 24 35.3494C20.975 35.3494 18.0875 34.1619 15.9625 32.0244C14.67 30.7359 13.7092 29.1531 13.1625 27.4119H11.5V21.7244H12.8625C13.2753 19.715 14.2244 17.8549 15.609 16.3414C16.9936 14.8279 18.7621 13.7174 20.7269 13.1278C22.6917 12.5383 24.7794 12.4916 26.7686 12.9928C28.7577 13.4939 30.5741 14.5243 32.025 15.9744C33.6003 17.5435 34.6748 19.5445 35.1125 21.7244H36.5V27.4119H36.425L31.975 31.4994L25.35 30.7494V28.6619H31.3875L32.4 27.4494ZM20.5875 23.7119C20.9625 23.7119 21.325 23.8619 21.5875 24.1369C21.8513 24.4028 21.9993 24.7623 21.9993 25.1369C21.9993 25.5115 21.8513 25.8709 21.5875 26.1369C21.325 26.3994 20.9625 26.5494 20.5875 26.5494C19.8 26.5494 19.1625 25.9244 19.1625 25.1369C19.1625 24.3494 19.8 23.7119 20.5875 23.7119ZM27.4 23.7119C28.1875 23.7119 28.8125 24.3494 28.8125 25.1369C28.8125 25.9244 28.1875 26.5494 27.4 26.5494C26.6125 26.5494 25.975 25.9244 25.975 25.1369C25.975 24.759 26.1251 24.3965 26.3924 24.1293C26.6596 23.862 27.0221 23.7119 27.4 23.7119Z" fill="white"/>
</svg>
