<svg width="11" height="10" viewBox="0 0 11 10" fill="none" xmlns="http://www.w3.org/2000/svg">
<path d="M5.01362 6.45834H5.98584V7.43056H5.01362M5.01362 2.56945H5.98584V5.48611H5.01362M5.49973 9.86111C6.1381 9.86111 6.77022 9.73538 7.36 9.49108C7.94977 9.24679 8.48566 8.88872 8.93705 8.43733C9.84869 7.52569 10.3608 6.28925 10.3608 5C10.3608 3.71076 9.84869 2.47431 8.93705 1.56268C8.48566 1.11128 7.94977 0.753216 7.36 0.508923C6.77022 0.264629 6.1381 0.138893 5.49973 0.138893C4.21048 0.138893 2.97404 0.651044 2.0624 1.56268C1.15077 2.47431 0.638618 3.71076 0.638618 5C0.638618 5.63837 0.764355 6.27049 1.00865 6.86027C1.25294 7.45005 1.61101 7.98593 2.0624 8.43733C2.5138 8.88872 3.04969 9.24679 3.63946 9.49108C4.22924 9.73538 4.86136 9.86111 5.49973 9.86111Z" fill="#C93838"/>
</svg>
