<svg width="753" height="20" viewBox="0 0 753 20" fill="none" xmlns="http://www.w3.org/2000/svg">
<rect width="753" height="20" rx="10" fill="#0059B3"/>
<path d="M0 10C0 4.47715 4.47715 0 10 0H735V20H9.99998C4.47713 20 0 15.5228 0 10Z" fill="#0059B3"/>
<path d="M365.588 5.73877V15H363.76V7.84619L361.564 8.54443V7.10352L365.392 5.73877H365.588ZM374.818 9.56641V11.166C374.818 11.86 374.744 12.4588 374.596 12.9624C374.448 13.4618 374.234 13.8722 373.955 14.1938C373.68 14.5112 373.352 14.7461 372.971 14.8984C372.59 15.0508 372.167 15.127 371.701 15.127C371.329 15.127 370.982 15.0804 370.66 14.9873C370.339 14.89 370.049 14.7397 369.791 14.5366C369.537 14.3335 369.317 14.0775 369.13 13.7686C368.948 13.4554 368.809 13.083 368.711 12.6514C368.614 12.2197 368.565 11.7246 368.565 11.166V9.56641C368.565 8.8724 368.639 8.27783 368.788 7.78271C368.94 7.28337 369.154 6.875 369.429 6.55762C369.708 6.24023 370.038 6.00749 370.419 5.85938C370.8 5.70703 371.223 5.63086 371.688 5.63086C372.061 5.63086 372.406 5.67952 372.723 5.77686C373.045 5.86995 373.335 6.01595 373.593 6.21484C373.851 6.41374 374.071 6.66976 374.253 6.98291C374.435 7.29183 374.575 7.66211 374.672 8.09375C374.769 8.52116 374.818 9.01204 374.818 9.56641ZM372.983 11.4072V9.31885C372.983 8.98454 372.964 8.69255 372.926 8.44287C372.892 8.1932 372.84 7.98161 372.768 7.80811C372.696 7.63037 372.607 7.48649 372.501 7.37646C372.395 7.26644 372.275 7.18604 372.139 7.13525C372.004 7.08447 371.854 7.05908 371.688 7.05908C371.481 7.05908 371.297 7.09928 371.136 7.17969C370.98 7.26009 370.846 7.38916 370.736 7.56689C370.626 7.7404 370.542 7.97314 370.482 8.26514C370.427 8.5529 370.4 8.90413 370.4 9.31885V11.4072C370.4 11.7415 370.417 12.0356 370.451 12.2896C370.489 12.5435 370.544 12.7614 370.616 12.9434C370.692 13.1211 370.781 13.2671 370.882 13.3813C370.988 13.4914 371.109 13.5718 371.244 13.6226C371.384 13.6733 371.536 13.6987 371.701 13.6987C371.904 13.6987 372.084 13.6585 372.241 13.5781C372.402 13.4935 372.537 13.3623 372.647 13.1846C372.761 13.0026 372.846 12.7656 372.901 12.4736C372.956 12.1816 372.983 11.8262 372.983 11.4072ZM382.283 9.56641V11.166C382.283 11.86 382.209 12.4588 382.061 12.9624C381.912 13.4618 381.699 13.8722 381.419 14.1938C381.144 14.5112 380.816 14.7461 380.436 14.8984C380.055 15.0508 379.632 15.127 379.166 15.127C378.794 15.127 378.447 15.0804 378.125 14.9873C377.803 14.89 377.514 14.7397 377.255 14.5366C377.001 14.3335 376.781 14.0775 376.595 13.7686C376.413 13.4554 376.274 13.083 376.176 12.6514C376.079 12.2197 376.03 11.7246 376.03 11.166V9.56641C376.03 8.8724 376.104 8.27783 376.252 7.78271C376.405 7.28337 376.618 6.875 376.894 6.55762C377.173 6.24023 377.503 6.00749 377.884 5.85938C378.265 5.70703 378.688 5.63086 379.153 5.63086C379.526 5.63086 379.871 5.67952 380.188 5.77686C380.51 5.86995 380.799 6.01595 381.058 6.21484C381.316 6.41374 381.536 6.66976 381.718 6.98291C381.9 7.29183 382.039 7.66211 382.137 8.09375C382.234 8.52116 382.283 9.01204 382.283 9.56641ZM380.448 11.4072V9.31885C380.448 8.98454 380.429 8.69255 380.391 8.44287C380.357 8.1932 380.304 7.98161 380.232 7.80811C380.16 7.63037 380.072 7.48649 379.966 7.37646C379.86 7.26644 379.739 7.18604 379.604 7.13525C379.469 7.08447 379.318 7.05908 379.153 7.05908C378.946 7.05908 378.762 7.09928 378.601 7.17969C378.444 7.26009 378.311 7.38916 378.201 7.56689C378.091 7.7404 378.007 7.97314 377.947 8.26514C377.892 8.5529 377.865 8.90413 377.865 9.31885V11.4072C377.865 11.7415 377.882 12.0356 377.916 12.2896C377.954 12.5435 378.009 12.7614 378.081 12.9434C378.157 13.1211 378.246 13.2671 378.347 13.3813C378.453 13.4914 378.574 13.5718 378.709 13.6226C378.849 13.6733 379.001 13.6987 379.166 13.6987C379.369 13.6987 379.549 13.6585 379.706 13.5781C379.866 13.4935 380.002 13.3623 380.112 13.1846C380.226 13.0026 380.311 12.7656 380.366 12.4736C380.421 12.1816 380.448 11.8262 380.448 11.4072ZM383.501 8.02393V7.53516C383.501 7.18392 383.578 6.86442 383.73 6.57666C383.882 6.2889 384.107 6.05827 384.403 5.88477C384.699 5.71126 385.063 5.62451 385.495 5.62451C385.939 5.62451 386.309 5.71126 386.605 5.88477C386.906 6.05827 387.13 6.2889 387.278 6.57666C387.431 6.86442 387.507 7.18392 387.507 7.53516V8.02393C387.507 8.3667 387.431 8.68197 387.278 8.96973C387.13 9.25749 386.908 9.48812 386.612 9.66162C386.316 9.83512 385.95 9.92188 385.514 9.92188C385.074 9.92188 384.703 9.83512 384.403 9.66162C384.107 9.48812 383.882 9.25749 383.73 8.96973C383.578 8.68197 383.501 8.3667 383.501 8.02393ZM384.714 7.53516V8.02393C384.714 8.17204 384.741 8.3138 384.796 8.44922C384.856 8.5804 384.944 8.68831 385.063 8.77295C385.186 8.85335 385.334 8.89355 385.507 8.89355C385.689 8.89355 385.837 8.85335 385.952 8.77295C386.066 8.68831 386.151 8.5804 386.206 8.44922C386.261 8.3138 386.288 8.17204 386.288 8.02393V7.53516C386.288 7.37858 386.258 7.2347 386.199 7.10352C386.144 6.9681 386.057 6.86019 385.939 6.77979C385.825 6.69515 385.677 6.65283 385.495 6.65283C385.325 6.65283 385.181 6.69515 385.063 6.77979C384.944 6.86019 384.856 6.9681 384.796 7.10352C384.741 7.2347 384.714 7.37858 384.714 7.53516ZM387.919 13.2227V12.7339C387.919 12.3869 387.996 12.0695 388.148 11.7817C388.305 11.494 388.531 11.2633 388.827 11.0898C389.128 10.9163 389.496 10.8296 389.932 10.8296C390.372 10.8296 390.74 10.9163 391.036 11.0898C391.332 11.2633 391.557 11.494 391.709 11.7817C391.861 12.0695 391.938 12.3869 391.938 12.7339V13.2227C391.938 13.5697 391.861 13.887 391.709 14.1748C391.561 14.4626 391.339 14.6932 391.042 14.8667C390.746 15.0402 390.38 15.127 389.944 15.127C389.504 15.127 389.134 15.0402 388.833 14.8667C388.533 14.6932 388.305 14.4626 388.148 14.1748C387.996 13.887 387.919 13.5697 387.919 13.2227ZM389.138 12.7339V13.2227C389.138 13.375 389.172 13.5189 389.24 13.6543C389.307 13.7897 389.401 13.8976 389.519 13.978C389.642 14.0584 389.784 14.0986 389.944 14.0986C390.147 14.0986 390.306 14.0584 390.42 13.978C390.535 13.8976 390.613 13.7897 390.655 13.6543C390.702 13.5189 390.725 13.375 390.725 13.2227V12.7339C390.725 12.5815 390.695 12.4398 390.636 12.3086C390.577 12.1732 390.488 12.0653 390.37 11.9849C390.255 11.9002 390.109 11.8579 389.932 11.8579C389.754 11.8579 389.606 11.9002 389.487 11.9849C389.373 12.0653 389.286 12.1732 389.227 12.3086C389.168 12.4398 389.138 12.5815 389.138 12.7339ZM390.382 7.07812L385.869 14.3018L384.98 13.832L389.494 6.6084L390.382 7.07812Z" fill="#FAFAFA"/>
</svg>
