<svg width="39" height="39" viewBox="0 0 39 39" fill="none" xmlns="http://www.w3.org/2000/svg">
<circle cx="19.5" cy="19.5" r="19.5" fill="#F4F8FF"/>
<path d="M16.0007 8H14.6673C13.4274 8 12.8074 8 12.2987 8.1363C10.9183 8.50617 9.84015 9.58436 9.47028 10.9647C9.33398 11.4734 9.33398 12.0934 9.33398 13.3333" stroke="#0059B3" stroke-width="2" stroke-linejoin="round"/>
<path d="M24 8H25.3333C26.5733 8 27.1933 8 27.7019 8.1363C29.0823 8.50617 30.1605 9.58436 30.5304 10.9647C30.6667 11.4734 30.6667 12.0934 30.6667 13.3333" stroke="#0059B3" stroke-width="2" stroke-linejoin="round"/>
<path d="M30.6667 24V25.3333C30.6667 27.8256 30.6667 29.0718 30.1308 30C29.7797 30.6081 29.2747 31.113 28.6667 31.4641C27.7385 32 26.4923 32 24 32" stroke="#0059B3" stroke-width="2" stroke-linejoin="round"/>
<path d="M9.33398 24V25.3333C9.33398 27.8256 9.33398 29.0718 9.86988 30C10.221 30.6081 10.7259 31.113 11.334 31.4641C12.2622 32 13.5083 32 16.0007 32" stroke="#0059B3" stroke-width="2" stroke-linejoin="round"/>
<path d="M8 24L32 24" stroke="#0059B3" stroke-width="2" stroke-linecap="round" stroke-linejoin="round"/>
<path d="M13.3327 18L13.3327 24L26.666 24L26.666 18C26.666 17.0572 26.666 16.5858 26.3731 16.2929C26.0802 16 25.6088 16 24.666 16L15.3327 16C14.3899 16 13.9185 16 13.6256 16.2929C13.3327 16.5858 13.3327 17.0572 13.3327 18Z" stroke="#0059B3" stroke-width="2" stroke-linecap="round" stroke-linejoin="round"/>
</svg>
