<svg width="16" height="16" viewBox="0 0 16 16" fill="none" xmlns="http://www.w3.org/2000/svg">
<path fill-rule="evenodd" clip-rule="evenodd" d="M13.3327 1.3335V1.35883C13.0343 1.53435 12.787 1.78477 12.6152 2.08529C12.4435 2.38582 12.3532 2.72601 12.3533 3.07216V13.2922C12.3527 13.3322 12.3513 13.3728 12.3487 13.4122C12.224 14.1488 11.5454 14.6668 10.684 14.6668C9.72935 14.6668 8.99935 14.0122 8.99935 13.1668V11.1668C8.99935 10.7068 8.62602 10.3335 8.16602 10.3335H2.99935V3.50016C2.99935 2.92553 3.22762 2.37443 3.63395 1.9681C4.04028 1.56177 4.59138 1.3335 5.16602 1.3335H13.1993V1.33816C13.2433 1.33483 13.288 1.3335 13.3327 1.3335ZM1.26735 11.3335C0.935349 11.3335 0.666016 11.6028 0.666016 11.9348V12.7168C0.666016 13.8435 1.58402 14.6668 2.66602 14.6668H8.50068C8.18845 14.2529 8.0134 13.7518 8.00002 13.2335H7.99935V11.3335H1.26735ZM15.4993 4.69016V2.91683C15.4993 2.62951 15.3852 2.35396 15.182 2.1508C14.9789 1.94763 14.7033 1.8335 14.416 1.8335C14.1287 1.8335 13.8531 1.94763 13.65 2.1508C13.4468 2.35396 13.3327 2.62951 13.3327 2.91683V5.8335H14.3567C14.988 5.8335 15.4993 5.3215 15.4993 4.69016ZM4.24283 6.18408C4.40005 6.55009 4.6286 6.88112 4.91513 7.15787C5.48094 7.70434 6.23875 8.00672 7.02534 7.99989C7.81193 7.99305 8.56436 7.67755 9.12059 7.12132C9.67681 6.5651 9.99232 5.81266 9.99915 5.02607C10.006 4.23948 9.70361 3.48167 9.15713 2.91586C8.88039 2.62933 8.54936 2.40079 8.18335 2.24356C7.81733 2.08633 7.42367 2.00357 7.02534 2.00011C6.627 1.99665 6.23196 2.07256 5.86327 2.2234C5.49458 2.37424 5.15963 2.597 4.87795 2.87868C4.59627 3.16036 4.37351 3.49531 4.22267 3.864C4.07182 4.23269 3.99592 4.62773 3.99938 5.02607C4.00284 5.42441 4.0856 5.81807 4.24283 6.18408ZM8.30513 4.18786L7.45613 5.03686H7.45913L8.30813 5.88586L7.88513 6.30886L7.03613 5.45986L6.18713 6.30886L5.76413 5.88586L6.61313 5.03686L5.76413 4.18786L6.18713 3.76486L7.03613 4.61386L7.88213 3.76486L8.30513 4.18786Z" fill="#3F3F46"/>
</svg>
