<svg width="16" height="16" viewBox="0 0 16 16" fill="none" xmlns="http://www.w3.org/2000/svg">
<path fill-rule="evenodd" clip-rule="evenodd" d="M13.3346 1.3335V1.35883C13.0363 1.53435 12.789 1.78477 12.6172 2.08529C12.4454 2.38582 12.3551 2.72601 12.3553 3.07216V13.2922C12.3546 13.3322 12.3533 13.3728 12.3506 13.4122C12.226 14.1488 11.5473 14.6668 10.686 14.6668C9.7313 14.6668 9.0013 14.0122 9.0013 13.1668V11.1668C9.0013 10.7068 8.62797 10.3335 8.16797 10.3335H3.0013V3.50016C3.0013 2.92553 3.22958 2.37443 3.6359 1.9681C4.04223 1.56177 4.59333 1.3335 5.16797 1.3335H13.2013V1.33816C13.2453 1.33483 13.29 1.3335 13.3346 1.3335ZM1.2693 11.3335C0.937302 11.3335 0.667969 11.6028 0.667969 11.9348V12.7168C0.667969 13.8435 1.58597 14.6668 2.66797 14.6668H8.50264C8.1904 14.2529 8.01535 13.7518 8.00197 13.2335H8.0013V11.3335H1.2693ZM15.5013 4.69016V2.91683C15.5013 2.62951 15.3872 2.35396 15.184 2.1508C14.9808 1.94763 14.7053 1.8335 14.418 1.8335C14.1307 1.8335 13.8551 1.94763 13.6519 2.1508C13.4488 2.35396 13.3346 2.62951 13.3346 2.91683V5.8335H14.3586C14.99 5.8335 15.5013 5.3215 15.5013 4.69016ZM4.24478 6.18408C4.40201 6.55009 4.63055 6.88112 4.91709 7.15787C5.48289 7.70434 6.2407 8.00672 7.02729 7.99989C7.81388 7.99305 8.56632 7.67755 9.12254 7.12132C9.67877 6.5651 9.99427 5.81266 10.0011 5.02607C10.0079 4.23948 9.70556 3.48167 9.15909 2.91586C8.88235 2.62933 8.55131 2.40079 8.1853 2.24356C7.81929 2.08633 7.42563 2.00357 7.02729 2.00011C6.62895 1.99665 6.23391 2.07256 5.86522 2.2234C5.49653 2.37424 5.16158 2.597 4.8799 2.87868C4.59822 3.16036 4.37546 3.49531 4.22462 3.864C4.07378 4.23269 3.99787 4.62773 4.00133 5.02607C4.0048 5.42441 4.08755 5.81807 4.24478 6.18408ZM8.30709 4.18786L7.45809 5.03686H7.46109L8.31009 5.88586L7.88709 6.30886L7.03809 5.45986L6.18909 6.30886L5.76609 5.88586L6.61509 5.03686L5.76609 4.18786L6.18909 3.76486L7.03809 4.61386L7.88409 3.76486L8.30709 4.18786Z" fill="#0059B3"/>
</svg>
