<svg width="37" height="38" viewBox="0 0 37 38" fill="none" xmlns="http://www.w3.org/2000/svg">
<path d="M0 1C0 0.447716 0.447715 0 1 0H37V38H0.999999C0.447715 38 0 37.5523 0 37V1Z" fill="#ECF6FF"/>
<path fill-rule="evenodd" clip-rule="evenodd" d="M11.5 19C11.5 14.8578 14.8578 11.5 19 11.5C23.1423 11.5 26.5 14.8578 26.5 19C26.5 23.1423 23.1423 26.5 19 26.5C14.8578 26.5 11.5 23.1423 11.5 19ZM19 16C19 15.8011 18.921 15.6103 18.7803 15.4697C18.6397 15.329 18.4489 15.25 18.25 15.25C18.0511 15.25 17.8603 15.329 17.7197 15.4697C17.579 15.6103 17.5 15.8011 17.5 16V19.75C17.5 19.9489 17.579 20.1397 17.7197 20.2803C17.8603 20.421 18.0511 20.5 18.25 20.5H22C22.1989 20.5 22.3897 20.421 22.5303 20.2803C22.671 20.1397 22.75 19.9489 22.75 19.75C22.75 19.5511 22.671 19.3603 22.5303 19.2197C22.3897 19.079 22.1989 19 22 19H19V16Z" fill="#1279E1"/>
</svg>
