<svg width="16" height="16" viewBox="0 0 16 16" fill="none" xmlns="http://www.w3.org/2000/svg">
<path d="M3.69778 3.69778C2.70259 4.69297 2.08326 6.00244 1.94531 7.40308C1.80736 8.80371 2.15933 10.2088 2.94124 11.3791C3.72316 12.5493 4.88664 13.4122 6.23345 13.8207C7.58026 14.2293 9.02706 14.1582 10.3273 13.6196C11.6276 13.081 12.7009 12.1082 13.3644 10.867C14.0278 9.62579 14.2404 8.19292 13.9658 6.81255C13.6912 5.43218 12.9465 4.18972 11.8586 3.29687C10.7706 2.40402 9.40676 1.91602 7.99935 1.91602" stroke="#16A34A" stroke-width="1.5" stroke-linecap="round"/>
<path d="M8 8L4 4" stroke="#16A34A" stroke-width="1.5" stroke-linecap="round"/>
<path d="M8 2V3.33333" stroke="#16A34A" stroke-width="1.5" stroke-linecap="round"/>
<path d="M14 8L12.6667 8" stroke="#16A34A" stroke-width="1.5" stroke-linecap="round"/>
<path d="M8 12.666V13.9993" stroke="#16A34A" stroke-width="1.5" stroke-linecap="round"/>
<path d="M3.33398 8L2.00065 8" stroke="#16A34A" stroke-width="1.5" stroke-linecap="round"/>
</svg>
