<svg width="13" height="13" viewBox="0 0 13 13" fill="none" xmlns="http://www.w3.org/2000/svg">
<path d="M6.5 0.684082C5.29477 0.684082 4.11661 1.04147 3.1145 1.71106C2.11238 2.38065 1.33133 3.33237 0.870112 4.44585C0.40889 5.55934 0.288214 6.78459 0.523342 7.96666C0.758471 9.14874 1.33884 10.2345 2.19107 11.0868C3.0433 11.939 4.1291 12.5194 5.31117 12.7545C6.49324 12.9896 7.71849 12.8689 8.83198 12.4077C9.94547 11.9465 10.8972 11.1655 11.5668 10.1633C12.2364 9.16123 12.5938 7.98306 12.5938 6.77783C12.592 5.16219 11.9495 3.61321 10.807 2.47078C9.66462 1.32835 8.11564 0.685788 6.5 0.684082ZM6.26563 3.49658C6.40469 3.49658 6.54063 3.53782 6.65626 3.61508C6.77189 3.69234 6.86201 3.80215 6.91523 3.93063C6.96845 4.05911 6.98237 4.20049 6.95524 4.33688C6.92811 4.47327 6.86115 4.59856 6.76281 4.69689C6.66448 4.79523 6.53919 4.86219 6.4028 4.88932C6.26641 4.91645 6.12503 4.90253 5.99655 4.84931C5.86807 4.79609 5.75826 4.70597 5.681 4.59034C5.60374 4.47471 5.5625 4.33877 5.5625 4.19971C5.5625 4.01323 5.63658 3.83438 5.76844 3.70252C5.9003 3.57066 6.07915 3.49658 6.26563 3.49658ZM6.96875 10.0591C6.72011 10.0591 6.48166 9.96031 6.30584 9.78449C6.13002 9.60868 6.03125 9.37022 6.03125 9.12158V6.77783C5.90693 6.77783 5.7877 6.72845 5.6998 6.64054C5.61189 6.55263 5.5625 6.4334 5.5625 6.30908C5.5625 6.18476 5.61189 6.06553 5.6998 5.97763C5.7877 5.88972 5.90693 5.84033 6.03125 5.84033C6.27989 5.84033 6.51835 5.9391 6.69417 6.11492C6.86998 6.29073 6.96875 6.52919 6.96875 6.77783V9.12158C7.09307 9.12158 7.2123 9.17097 7.30021 9.25887C7.38812 9.34678 7.4375 9.46601 7.4375 9.59033C7.4375 9.71465 7.38812 9.83388 7.30021 9.92179C7.2123 10.0097 7.09307 10.0591 6.96875 10.0591Z" fill="#71717A"/>
</svg>
