<svg width="26" height="12" viewBox="0 0 26 12" fill="none" xmlns="http://www.w3.org/2000/svg">
<path d="M19.3508 0C17.2908 0 15.6482 1.0265 14.6331 1.888L14.5973 1.9185L14.0192 2.542L15.2954 4.6225L16.2399 3.683C17.2283 2.855 18.3317 2.4 19.3508 2.4C21.4073 2.4 23.0806 4.015 23.0806 6C23.0806 7.985 21.4073 9.6 19.3508 9.6C16.2258 9.6 14.1018 5.5025 14.0806 5.461C13.9577 5.2145 11.2641 0 6.64919 0C3.25857 0 0.5 2.6915 0.5 6C0.5 9.3085 3.25857 12 6.64919 12C8.30998 12 9.94456 11.3445 11.3765 10.104L11.4073 10.077L11.9808 9.458L10.7041 7.3775L9.75504 8.3215C8.76613 9.17 7.72077 9.6 6.64919 9.6C4.59274 9.6 2.91935 7.985 2.91935 6C2.91935 4.015 4.59274 2.4 6.64919 2.4C9.77419 2.4 11.8982 6.4975 11.9194 6.539C12.0423 6.7855 14.7359 12 19.3508 12C22.7414 12 25.5 9.3085 25.5 6C25.5 2.6915 22.7414 0 19.3508 0Z" fill="#35AD77"/>
</svg>
