<svg width="18" height="18" viewBox="0 0 18 18" fill="none" xmlns="http://www.w3.org/2000/svg">
<path d="M8.9625 13.5C9.225 13.5 9.447 13.4092 9.6285 13.2277C9.81 13.0462 9.9005 12.8245 9.9 12.5625C9.9 12.3 9.8095 12.078 9.6285 11.8965C9.4475 11.715 9.2255 11.6245 8.9625 11.625C8.7 11.625 8.47825 11.7157 8.29725 11.8973C8.11625 12.0787 8.0255 12.3005 8.025 12.5625C8.025 12.825 8.11575 13.047 8.29725 13.2285C8.47875 13.41 8.7005 13.5005 8.9625 13.5ZM8.2875 10.6125H9.675C9.675 10.2 9.722 9.875 9.816 9.6375C9.91 9.4 10.1755 9.075 10.6125 8.6625C10.9375 8.3375 11.1938 8.028 11.3813 7.734C11.5688 7.44 11.6625 7.087 11.6625 6.675C11.6625 5.975 11.4062 5.4375 10.8937 5.0625C10.3812 4.6875 9.775 4.5 9.075 4.5C8.3625 4.5 7.7845 4.6875 7.341 5.0625C6.8975 5.4375 6.588 5.8875 6.4125 6.4125L7.65 6.9C7.7125 6.675 7.85325 6.43125 8.07225 6.16875C8.29125 5.90625 8.6255 5.775 9.075 5.775C9.475 5.775 9.775 5.8845 9.975 6.1035C10.175 6.3225 10.275 6.563 10.275 6.825C10.275 7.075 10.2 7.3095 10.05 7.5285C9.9 7.7475 9.7125 7.9505 9.4875 8.1375C8.9375 8.625 8.6 8.99375 8.475 9.24375C8.35 9.49375 8.2875 9.95 8.2875 10.6125ZM9 16.5C7.9625 16.5 6.9875 16.303 6.075 15.909C5.1625 15.515 4.36875 14.9808 3.69375 14.3063C3.01875 13.6313 2.4845 12.8375 2.091 11.925C1.6975 11.0125 1.5005 10.0375 1.5 9C1.5 7.9625 1.697 6.9875 2.091 6.075C2.485 5.1625 3.01925 4.36875 3.69375 3.69375C4.36875 3.01875 5.1625 2.4845 6.075 2.091C6.9875 1.6975 7.9625 1.5005 9 1.5C10.0375 1.5 11.0125 1.697 11.925 2.091C12.8375 2.485 13.6313 3.01925 14.3063 3.69375C14.9813 4.36875 15.5157 5.1625 15.9097 6.075C16.3037 6.9875 16.5005 7.9625 16.5 9C16.5 10.0375 16.303 11.0125 15.909 11.925C15.515 12.8375 14.9808 13.6313 14.3063 14.3063C13.6313 14.9813 12.8375 15.5157 11.925 15.9097C11.0125 16.3037 10.0375 16.5005 9 16.5Z" fill="white"/>
</svg>
