<svg width="18" height="18" viewBox="0 0 18 18" fill="none" xmlns="http://www.w3.org/2000/svg">
<path d="M14.04 11.07C14.3025 10.4325 14.445 9.75002 14.445 9.00002C14.445 8.46002 14.3625 7.94252 14.22 7.46252C13.7325 7.57502 13.2225 7.63502 12.69 7.63502C11.5995 7.63619 10.5247 7.37516 9.55615 6.87394C8.58764 6.37271 7.75382 5.64599 7.125 4.75502C6.45232 6.38265 5.18334 7.69187 3.5775 8.41502C3.5475 8.60252 3.5475 8.80502 3.5475 9.00002C3.5475 9.71605 3.68853 10.4251 3.96255 11.0866C4.23656 11.7481 4.63819 12.3492 5.1445 12.8555C6.16704 13.8781 7.55391 14.4525 9 14.4525C9.7875 14.4525 10.545 14.28 11.2275 13.9725C11.655 14.79 11.85 15.195 11.835 15.195C10.605 15.6075 9.6525 15.81 9 15.81C7.185 15.81 5.4525 15.0975 4.1775 13.815C3.402 13.0419 2.82553 12.0923 2.4975 11.0475H1.5V7.63502H2.3175C2.56518 6.42941 3.13462 5.31333 3.96539 4.40521C4.79616 3.4971 5.85728 2.83083 7.03615 2.47709C8.21501 2.12335 9.46765 2.09535 10.6611 2.39605C11.8546 2.69675 12.9445 3.31494 13.815 4.18502C14.7602 5.12646 15.4049 6.3271 15.6675 7.63502H16.5V11.0475H16.455L13.785 13.5L9.81 13.05V11.7975H13.4325L14.04 11.07ZM6.9525 8.82752C7.1775 8.82752 7.395 8.91752 7.5525 9.08252C7.71078 9.2421 7.7996 9.45776 7.7996 9.68252C7.7996 9.90728 7.71078 10.1229 7.5525 10.2825C7.395 10.44 7.1775 10.53 6.9525 10.53C6.48 10.53 6.0975 10.155 6.0975 9.68252C6.0975 9.21002 6.48 8.82752 6.9525 8.82752ZM11.04 8.82752C11.5125 8.82752 11.8875 9.21002 11.8875 9.68252C11.8875 10.155 11.5125 10.53 11.04 10.53C10.5675 10.53 10.185 10.155 10.185 9.68252C10.185 9.45576 10.2751 9.23829 10.4354 9.07794C10.5958 8.9176 10.8132 8.82752 11.04 8.82752Z" fill="white"/>
</svg>
