<svg width="36" height="36" viewBox="0 0 36 36" fill="none" xmlns="http://www.w3.org/2000/svg">
<path d="M12 13C12 9.6863 14.6863 7 18 7C21.3137 7 24 9.6863 24 13C24 16.3137 21.3137 19 18 19C14.6863 19 12 16.3137 12 13Z" fill="#C7C7C7"/>
<path fill-rule="evenodd" clip-rule="evenodd" d="M18 0C8.05886 0 0 8.05886 0 18C0 27.941 8.05886 36 18 36C27.941 36 36 27.941 36 18C36 8.05886 27.941 0 18 0ZM2.4 18C2.4 9.38436 9.38436 2.4 18 2.4C26.6158 2.4 33.6 9.38436 33.6 18C33.6 22.4389 31.746 26.4449 28.77 29.2858C28.4076 24.9806 24.7987 21.6 20.4 21.6H15.6C11.2014 21.6 7.59228 24.9806 7.22993 29.2858C4.25402 26.4449 2.4 22.4389 2.4 18Z" fill="#C7C7C7"/>
</svg>
