<svg width="14" height="14" viewBox="0 0 14 14" fill="none" xmlns="http://www.w3.org/2000/svg">
<g clip-path="url(#clip0_4581_294)">
<path d="M7.0013 12.8337C10.2231 12.8337 12.8346 10.2221 12.8346 7.00033C12.8346 3.77858 10.2231 1.16699 7.0013 1.16699C3.77955 1.16699 1.16797 3.77858 1.16797 7.00033C1.16797 10.2221 3.77955 12.8337 7.0013 12.8337Z" stroke="white" stroke-width="1.5" stroke-linecap="round" stroke-linejoin="round"/>
<path d="M6.41927 4.08942L6.4251 4.08301M4.66927 9.33942L4.6751 9.33301M9.33594 5.25609L9.34177 5.24967M9.91927 8.17276L9.9251 8.16634M7.58594 7.00609L7.59177 6.99967M4.3776 6.41692C4.30025 6.41692 4.22606 6.3862 4.17136 6.3315C4.11667 6.2768 4.08594 6.20261 4.08594 6.12526C4.08594 6.0479 4.11667 5.97372 4.17136 5.91902C4.22606 5.86432 4.30025 5.83359 4.3776 5.83359C4.45496 5.83359 4.52915 5.86432 4.58384 5.91902C4.63854 5.97372 4.66927 6.0479 4.66927 6.12526C4.66927 6.20261 4.63854 6.2768 4.58384 6.3315C4.52915 6.3862 4.45496 6.41692 4.3776 6.41692ZM7.58594 10.5003C7.43123 10.5003 7.28285 10.4388 7.17346 10.3294C7.06406 10.22 7.0026 10.0716 7.0026 9.91692C7.0026 9.76221 7.06406 9.61384 7.17346 9.50444C7.28285 9.39505 7.43123 9.33359 7.58594 9.33359C7.74065 9.33359 7.88902 9.39505 7.99842 9.50444C8.10781 9.61384 8.16927 9.76221 8.16927 9.91692C8.16927 10.0716 8.10781 10.22 7.99842 10.3294C7.88902 10.4388 7.74065 10.5003 7.58594 10.5003Z" stroke="white" stroke-linecap="round" stroke-linejoin="round"/>
</g>
<defs>
<clipPath id="clip0_4581_294">
<rect width="14" height="14" fill="white"/>
</clipPath>
</defs>
</svg>
