<svg width="70" height="88" viewBox="0 0 70 88" fill="none" xmlns="http://www.w3.org/2000/svg">
<path d="M0 6C0 2.68629 2.68629 0 6 0H70V88H6C2.68629 88 0 85.3137 0 82V6Z" fill="#1279E1"/>
<path d="M0.5 6C0.5 2.96243 2.96243 0.5 6 0.5H69.5V87.5H6C2.96243 87.5 0.5 85.0376 0.5 82V6Z" stroke="#0059B3" stroke-opacity="0.16"/>
<path d="M45.3125 49.7572V45.875C45.3125 45.3777 45.115 44.9008 44.7633 44.5492C44.4117 44.1975 43.9348 44 43.4375 44H35.9375V40.25H37.8125C38.3096 40.2495 38.7863 40.0518 39.1378 39.7003C39.4893 39.3488 39.687 38.8721 39.6875 38.375V32.75C39.687 32.2529 39.4893 31.7762 39.1378 31.4247C38.7863 31.0732 38.3096 30.8755 37.8125 30.875H32.1875C31.6904 30.8755 31.2138 31.0732 30.8622 31.4247C30.5107 31.7762 30.313 32.2529 30.3125 32.75V38.375C30.313 38.8721 30.5107 39.3488 30.8622 39.7003C31.2138 40.0518 31.6904 40.2495 32.1875 40.25H34.0625V44H26.5625C26.0652 44 25.5883 44.1975 25.2367 44.5492C24.8851 44.9008 24.6875 45.3777 24.6875 45.875V49.7581C23.8038 49.9863 23.0336 50.529 22.5213 51.2844C22.0091 52.0398 21.7899 52.9561 21.9049 53.8616C22.0199 54.767 22.4612 55.5994 23.146 56.2028C23.8309 56.8062 24.7123 57.139 25.625 57.139C26.5377 57.139 27.4191 56.8062 28.104 56.2028C28.7888 55.5994 29.2301 54.767 29.3451 53.8616C29.4601 52.9561 29.241 52.0398 28.7287 51.2844C28.2164 50.529 27.4463 49.9863 26.5625 49.7581V45.875H34.0625V49.7581C33.1788 49.9863 32.4086 50.529 31.8963 51.2844C31.3841 52.0398 31.1649 52.9561 31.2799 53.8616C31.3949 54.767 31.8362 55.5994 32.521 56.2028C33.2059 56.8062 34.0873 57.139 35 57.139C35.9127 57.139 36.7941 56.8062 37.479 56.2028C38.1638 55.5994 38.6051 54.767 38.7201 53.8616C38.8351 52.9561 38.616 52.0398 38.1037 51.2844C37.5914 50.529 36.8213 49.9863 35.9375 49.7581V45.875H43.4375V49.7572C42.5538 49.9854 41.7836 50.528 41.2713 51.2834C40.7591 52.0389 40.5399 52.9552 40.6549 53.8606C40.7699 54.7661 41.2112 55.5985 41.896 56.2019C42.5809 56.8052 43.4623 57.1381 44.375 57.1381C45.2877 57.1381 46.1691 56.8052 46.854 56.2019C47.5388 55.5985 47.9801 54.7661 48.0951 53.8606C48.2101 52.9552 47.991 52.0389 47.4787 51.2834C46.9664 50.528 46.1963 49.9854 45.3125 49.7572ZM32.1875 32.75H37.8125L37.8134 38.375H32.1875V32.75ZM27.5 53.375C27.5 53.7458 27.39 54.1084 27.184 54.4167C26.978 54.725 26.6852 54.9654 26.3425 55.1073C25.9999 55.2492 25.6229 55.2863 25.2592 55.214C24.8955 55.1416 24.5614 54.963 24.2992 54.7008C24.037 54.4386 23.8584 54.1045 23.786 53.7408C23.7137 53.3771 23.7508 53.0001 23.8927 52.6575C24.0346 52.3149 24.275 52.022 24.5833 51.816C24.8917 51.61 25.2542 51.5 25.625 51.5C26.1221 51.5005 26.5988 51.6982 26.9503 52.0497C27.3018 52.4012 27.4995 52.8779 27.5 53.375ZM36.875 53.375C36.875 53.7458 36.765 54.1084 36.559 54.4167C36.353 54.725 36.0602 54.9654 35.7175 55.1073C35.3749 55.2492 34.9979 55.2863 34.6342 55.214C34.2705 55.1416 33.9364 54.963 33.6742 54.7008C33.412 54.4386 33.2334 54.1045 33.161 53.7408C33.0887 53.3771 33.1258 53.0001 33.2677 52.6575C33.4096 52.3149 33.65 52.022 33.9583 51.816C34.2667 51.61 34.6292 51.5 35 51.5C35.4971 51.5007 35.9735 51.6985 36.325 52.05C36.6765 52.4015 36.8743 52.8779 36.875 53.375ZM44.375 55.25C44.0042 55.25 43.6417 55.14 43.3333 54.934C43.025 54.728 42.7847 54.4351 42.6427 54.0925C42.5008 53.7499 42.4637 53.3729 42.536 53.0092C42.6084 52.6455 42.787 52.3114 43.0492 52.0492C43.3114 51.787 43.6455 51.6084 44.0092 51.536C44.3729 51.4637 44.7499 51.5008 45.0925 51.6427C45.4352 51.7846 45.728 52.025 45.934 52.3333C46.14 52.6416 46.25 53.0042 46.25 53.375C46.2495 53.8721 46.0518 54.3488 45.7003 54.7003C45.3488 55.0518 44.8721 55.2495 44.375 55.25Z" fill="white"/>
</svg>
