<svg width="70" height="88" viewBox="0 0 70 88" fill="none" xmlns="http://www.w3.org/2000/svg">
<path d="M0 6C0 2.68629 2.68629 0 6 0H70V88H6C2.68629 88 0 85.3137 0 82V6Z" fill="#1279E1"/>
<path d="M0.5 6C0.5 2.96243 2.96243 0.5 6 0.5H69.5V87.5H6C2.96243 87.5 0.5 85.0376 0.5 82V6Z" stroke="#0059B3" stroke-opacity="0.16"/>
<path d="M35 30.875V37.4375C35 38.1834 35.2963 38.8988 35.8238 39.4262C36.3512 39.9537 37.0666 40.25 37.8125 40.25H44.375V54.3125C44.375 55.0584 44.0787 55.7738 43.5512 56.3012C43.0238 56.8287 42.3084 57.125 41.5625 57.125H40.4656C40.6423 56.6245 40.6737 56.0842 40.5562 55.5666C40.4387 55.049 40.1772 54.5752 39.8019 54.2L36.0519 50.45C36.7723 48.9439 37.0298 47.258 36.7917 45.6056C36.5536 43.9531 35.8306 42.4085 34.7143 41.1671C33.598 39.9257 32.1385 39.0434 30.5205 38.6318C28.9025 38.2202 27.1988 38.2979 25.625 38.855V33.6875C25.625 32.9416 25.9213 32.2262 26.4488 31.6988C26.9762 31.1713 27.6916 30.875 28.4375 30.875H35ZM36.875 31.3437V37.4375C36.875 37.6861 36.9738 37.9246 37.1496 38.1004C37.3254 38.2762 37.5639 38.375 37.8125 38.375H43.9062L36.875 31.3437ZM32.3675 52.0681C31.0388 53.0617 29.383 53.5151 27.7334 53.3371C26.0839 53.1591 24.5629 52.3629 23.4768 51.1087C22.3906 49.8545 21.8198 48.2355 21.8792 46.5774C21.9387 44.9193 22.6239 43.3453 23.7971 42.1721C24.9703 40.9989 26.5443 40.3137 28.2024 40.2542C29.8605 40.1948 31.4795 40.7656 32.7337 41.8518C33.9879 42.9379 34.7841 44.4589 34.9621 46.1084C35.1401 47.758 34.6867 49.4138 33.6931 50.7425L38.4744 55.5237C38.6504 55.6995 38.7494 55.9381 38.7496 56.1868C38.7498 56.4356 38.6511 56.6743 38.4753 56.8503C38.2995 57.0263 38.061 57.1253 37.8122 57.1255C37.5634 57.1257 37.3248 57.027 37.1487 56.8512L32.3675 52.0681ZM33.125 46.8125C33.125 45.5693 32.6311 44.377 31.7521 43.4979C30.873 42.6189 29.6807 42.125 28.4375 42.125C27.1943 42.125 26.002 42.6189 25.1229 43.4979C24.2439 44.377 23.75 45.5693 23.75 46.8125C23.75 48.0557 24.2439 49.248 25.1229 50.1271C26.002 51.0061 27.1943 51.5 28.4375 51.5C29.6807 51.5 30.873 51.0061 31.7521 50.1271C32.6311 49.248 33.125 48.0557 33.125 46.8125Z" fill="white"/>
</svg>
