<svg width="48" height="48" viewBox="0 0 48 48" fill="none" xmlns="http://www.w3.org/2000/svg">
<rect width="48" height="48" rx="6" fill="#0073E6"/>
<path d="M24 18.75V12H17.25C16.6533 12 16.081 12.2371 15.659 12.659C15.2371 13.081 15 13.6533 15 14.25V33.75C15 34.3467 15.2371 34.919 15.659 35.341C16.081 35.7629 16.6533 36 17.25 36H30.75C31.3467 36 31.919 35.7629 32.341 35.341C32.7629 34.919 33 34.3467 33 33.75V21H26.25C25.6533 21 25.081 20.7629 24.659 20.341C24.2371 19.919 24 19.3467 24 18.75ZM18.75 24H29.25C29.4489 24 29.6397 24.079 29.7803 24.2197C29.921 24.3603 30 24.5511 30 24.75C30 24.9489 29.921 25.1397 29.7803 25.2803C29.6397 25.421 29.4489 25.5 29.25 25.5H18.75C18.5511 25.5 18.3603 25.421 18.2197 25.2803C18.079 25.1397 18 24.9489 18 24.75C18 24.5511 18.079 24.3603 18.2197 24.2197C18.3603 24.079 18.5511 24 18.75 24ZM18.75 27H29.25C29.4489 27 29.6397 27.079 29.7803 27.2197C29.921 27.3603 30 27.5511 30 27.75C30 27.9489 29.921 28.1397 29.7803 28.2803C29.6397 28.421 29.4489 28.5 29.25 28.5H18.75C18.5511 28.5 18.3603 28.421 18.2197 28.2803C18.079 28.1397 18 27.9489 18 27.75C18 27.5511 18.079 27.3603 18.2197 27.2197C18.3603 27.079 18.5511 27 18.75 27ZM18.75 30H29.25C29.4489 30 29.6397 30.079 29.7803 30.2197C29.921 30.3603 30 30.5511 30 30.75C30 30.9489 29.921 31.1397 29.7803 31.2803C29.6397 31.421 29.4489 31.5 29.25 31.5H18.75C18.5511 31.5 18.3603 31.421 18.2197 31.2803C18.079 31.1397 18 30.9489 18 30.75C18 30.5511 18.079 30.3603 18.2197 30.2197C18.3603 30.079 18.5511 30 18.75 30ZM25.5 18.75V12.375L32.625 19.5H26.25C26.0511 19.5 25.8603 19.421 25.7197 19.2803C25.579 19.1397 25.5 18.9489 25.5 18.75Z" fill="white"/>
</svg>
