<svg width="48" height="48" viewBox="0 0 48 48" fill="none" xmlns="http://www.w3.org/2000/svg">
<rect width="48" height="48" rx="6" fill="#0073E6"/>
<path fill-rule="evenodd" clip-rule="evenodd" d="M20.0713 23.9338C20.0716 24.4861 20.2437 25.0246 20.5638 25.4748C20.8838 25.925 21.3359 26.2645 21.8575 26.4463V22.4538H20.0713V23.9338ZM25.2763 20.6775C25.09 20.1569 24.7472 19.7067 24.2949 19.3887C23.8426 19.0707 23.3029 18.9004 22.75 18.9013C22.1972 18.9001 21.6576 19.0703 21.2054 19.3884C20.7533 19.7064 20.4107 20.1568 20.225 20.6775H25.2763ZM25.4288 22.4538H23.6425V26.4475C24.1638 26.2652 24.6156 25.9256 24.9356 25.4756C25.2555 25.0255 25.4279 24.4872 25.4288 23.935V22.4538Z" fill="white"/>
<path fill-rule="evenodd" clip-rule="evenodd" d="M36.235 36.235C36.4043 36.0655 36.4994 35.8358 36.4994 35.5963C36.4994 35.3567 36.4043 35.127 36.235 34.9575L31.6525 30.375C33.5722 28.1252 34.5466 25.2198 34.3714 22.2675C34.1963 19.3152 32.8853 16.5453 30.7131 14.5382C28.5409 12.5312 25.6761 11.4429 22.7192 11.5013C19.7623 11.5597 16.9428 12.7603 14.8516 14.8516C12.7603 16.9428 11.5597 19.7623 11.5013 22.7192C11.4429 25.6761 12.5312 28.5409 14.5382 30.7131C16.5453 32.8853 19.3152 34.1963 22.2675 34.3714C25.2198 34.5466 28.1252 33.5722 30.375 31.6525L34.9575 36.235C35.127 36.4043 35.3567 36.4994 35.5963 36.4994C35.8358 36.4994 36.0655 36.4043 36.235 36.235ZM19.2375 18.825C19.6561 18.2942 20.1898 17.8655 20.7982 17.571C21.4067 17.2765 22.074 17.124 22.75 17.125C24.175 17.125 25.4463 17.79 26.2625 18.825L27.1125 18.4025C27.3241 18.2972 27.5689 18.2799 27.7932 18.3543C28.0176 18.4288 28.2034 18.589 28.31 18.8C28.3623 18.9044 28.3935 19.018 28.4018 19.1344C28.41 19.2509 28.3952 19.3678 28.3581 19.4785C28.3211 19.5892 28.2625 19.6914 28.1859 19.7794C28.1092 19.8674 28.0158 19.9394 27.9113 19.9913L27.0625 20.4138C27.1625 20.7813 27.2138 21.1675 27.2138 21.5663V21.8613H28.1075C28.6 21.8613 29 22.26 29 22.75C29 23.24 28.6 23.6375 28.1075 23.6375H27.2138V23.9338C27.2138 24.3338 27.1613 24.7188 27.0638 25.0863L27.9113 25.5088C28.0159 25.5605 28.1094 25.6324 28.1862 25.7203C28.263 25.8083 28.3217 25.9105 28.3589 26.0212C28.3961 26.1319 28.411 26.2489 28.4028 26.3654C28.3946 26.4819 28.3635 26.5956 28.3113 26.7C28.2046 26.9113 28.0186 27.0718 27.7939 27.1463C27.5693 27.2207 27.3243 27.2032 27.1125 27.0975L26.2625 26.675C25.8439 27.2058 25.3103 27.6346 24.7018 27.929C24.0933 28.2235 23.426 28.376 22.75 28.375C22.074 28.376 21.4067 28.2235 20.7982 27.929C20.1898 27.6346 19.6561 27.2058 19.2375 26.675L18.3875 27.0975C18.1759 27.2028 17.9312 27.2201 17.7068 27.1457C17.4824 27.0712 17.2966 26.911 17.19 26.7C17.1377 26.5957 17.1065 26.482 17.0983 26.3656C17.09 26.2491 17.1048 26.1322 17.1419 26.0215C17.1789 25.9108 17.2375 25.8086 17.3142 25.7206C17.3908 25.6326 17.4842 25.5606 17.5888 25.5088L18.4375 25.0863C18.3366 24.7104 18.2858 24.3229 18.2863 23.9338V23.6388H17.3925C17.2755 23.6391 17.1596 23.6163 17.0514 23.5718C16.9432 23.5273 16.8449 23.462 16.762 23.3794C16.6791 23.2969 16.6133 23.1988 16.5683 23.0908C16.5234 22.9828 16.5002 22.867 16.5 22.75C16.5 22.26 16.9 21.8625 17.3925 21.8625H18.2863V21.5663C18.2863 21.1663 18.3388 20.7813 18.4363 20.4138L17.5888 19.9913C17.4841 19.9395 17.3906 19.8676 17.3138 19.7797C17.237 19.6917 17.1783 19.5895 17.1411 19.4788C17.104 19.3681 17.089 19.2511 17.0972 19.1346C17.1054 19.0182 17.1365 18.9044 17.1888 18.8C17.2954 18.5887 17.4814 18.4283 17.7061 18.3538C17.9307 18.2793 18.1757 18.2968 18.3875 18.4025L19.2375 18.825Z" fill="white"/>
</svg>
